# Blender 4.5.3 LTS
# www.blender.org
mtllib archway_cp_allies.mtl
o venice
v -56.000015 72.000015 -183.999985
v -56.000015 120.000015 -183.999985
v -56.000015 112.000015 -191.999985
v -56.000015 0.000014 -184.000000
v -56.000023 120.000023 -264.000000
v -56.000023 112.000023 -255.999985
v -56.000023 72.000023 -264.000000
v -56.000015 0.000014 -192.000000
v -56.000023 0.000019 -256.000000
v -56.000023 0.000020 -264.000000
v -56.000015 112.000015 -191.999985
v -64.000015 112.000015 -191.999985
v -64.000015 8.000014 -192.000000
v -56.000015 0.000014 -192.000000
v -64.000015 0.000014 -192.000000
v -56.000023 112.000023 -255.999985
v -64.000015 112.000015 -191.999985
v -56.000015 112.000015 -191.999985
v -64.000023 112.000023 -255.999985
v -64.000023 8.000019 -256.000000
v -64.000023 112.000023 -255.999985
v -56.000023 112.000023 -255.999985
v -64.000023 0.000019 -256.000000
v -56.000023 0.000019 -256.000000
v -0.000000 72.000000 -1.999995
v 0.250000 81.687500 -1.999994
v 8.000000 72.000000 -1.999995
v 8.218750 80.718750 -1.999995
v 8.875000 88.875000 -1.999994
v 2.250000 99.187500 -1.999993
v 9.968750 96.468750 -1.999994
v 1.000000 90.750000 -1.999993
v 11.500000 103.500000 -1.999993
v 6.250000 114.187500 -1.999992
v 13.468750 109.968750 -1.999993
v 4.000000 107.000000 -1.999992
v 15.875000 115.875000 -1.999993
v 12.250000 126.687500 -1.999992
v 18.718750 121.218750 -1.999992
v 9.000000 120.750000 -1.999992
v 22.000000 126.000000 -1.999992
v 20.250000 136.687500 -1.999991
v 25.718750 130.218750 -1.999992
v 16.000000 132.000000 -1.999991
v 29.875000 133.875000 -1.999992
v 25.000000 140.750000 -1.999992
v 30.250000 144.187500 -1.999992
v 34.468750 136.968750 -1.999993
v 39.500000 139.500000 -1.999993
v 36.000000 147.000000 -1.999992
v 42.250000 149.187500 -1.999992
v 44.968750 141.468750 -1.999993
v 50.875000 142.875000 -1.999994
v 49.000000 150.750000 -1.999993
v 56.250000 151.687500 -1.999993
v 57.218750 143.718750 -1.999994
v 64.000000 144.000000 -1.999995
v 71.750000 151.687500 -1.999995
v 70.781250 143.718750 -1.999995
v 64.000000 152.000000 -1.999994
v 77.125000 142.875000 -1.999996
v 79.000000 150.750000 -1.999995
v 85.750000 149.187500 -1.999996
v 83.031250 141.468750 -1.999997
v 88.500000 139.500000 -1.999997
v 92.000000 147.000000 -1.999997
v 97.750000 144.187500 -1.999998
v 93.531250 136.968750 -1.999998
v 98.125000 133.875000 -1.999998
v 103.000000 140.750000 -1.999998
v 107.750000 136.687500 -1.999999
v 102.281250 130.218750 -1.999999
v 106.000000 126.000000 -2.000000
v 112.000000 132.000000 -2.000000
v 115.750000 126.687500 -2.000000
v 109.281250 121.218750 -2.000000
v 112.125000 115.875000 -2.000001
v 119.000000 120.750000 -2.000001
v 121.750000 114.187500 -2.000002
v 114.531250 109.968750 -2.000002
v 116.500000 103.500000 -2.000002
v 124.000000 107.000000 -2.000003
v 125.750000 99.187500 -2.000004
v 118.031250 96.468750 -2.000003
v 119.125000 88.875000 -2.000004
v 127.000000 90.750000 -2.000004
v 127.750000 81.687500 -2.000005
v 119.781250 80.718750 -2.000004
v 120.000000 72.000000 -2.000005
v 128.000000 72.000000 -2.000006
v 8.000000 0.000000 -2.000001
v -0.000000 0.000000 -2.000000
v -0.000000 56.000000 -1.999996
v 8.000000 56.000000 -1.999996
v 7.999998 56.000004 -25.999996
v -0.000000 56.000000 -1.999996
v -0.000002 56.000004 -25.999996
v 8.000000 56.000000 -1.999996
v 7.999998 0.000002 -26.000000
v 8.000000 56.000000 -1.999996
v 7.999998 56.000004 -25.999996
v 8.000000 0.000000 -2.000001
v 7.999998 0.000002 -26.000000
v -0.000002 56.000004 -25.999996
v -0.000002 0.000002 -26.000000
v 7.999998 56.000004 -25.999996
v 7.999970 0.000026 -346.000000
v -0.000030 56.000027 -346.000000
v 7.999970 56.000027 -346.000000
v -0.000030 0.000026 -346.000000
v 0.249968 81.687531 -370.000000
v -0.000032 72.000031 -370.000000
v 7.999968 72.000031 -370.000000
v 8.218718 80.718781 -370.000000
v 8.874968 88.875031 -370.000000
v 9.968718 96.468781 -370.000000
v 2.249968 99.187531 -370.000000
v 0.999968 90.750031 -370.000000
v 11.499968 103.500031 -370.000000
v 13.468718 109.968781 -370.000000
v 6.249968 114.187531 -370.000000
v 3.999968 107.000031 -370.000000
v 15.874968 115.875031 -370.000000
v 18.718718 121.218781 -370.000000
v 12.249968 126.687531 -370.000000
v 8.999968 120.750031 -370.000000
v 21.999968 126.000031 -370.000000
v 25.718718 130.218781 -370.000000
v 20.249968 136.687531 -370.000000
v 15.999968 132.000031 -370.000000
v 29.874968 133.875031 -370.000000
v 30.249968 144.187531 -370.000000
v 24.999968 140.750031 -370.000000
v 34.468719 136.968781 -370.000000
v 39.499969 139.500031 -370.000000
v 42.249969 149.187531 -370.000000
v 35.999969 147.000031 -370.000000
v 44.968719 141.468781 -370.000000
v 50.874969 142.875031 -370.000000
v 56.249969 151.687531 -370.000000
v 48.999969 150.750031 -370.000000
v 57.218719 143.718781 -370.000000
v 63.999969 144.000031 -370.000000
v 70.781219 143.718781 -370.000000
v 71.749969 151.687531 -370.000000
v 63.999969 152.000031 -370.000000
v 77.124969 142.875031 -370.000000
v 78.999969 150.750031 -370.000000
v 85.749969 149.187531 -370.000000
v 83.031219 141.468781 -370.000000
v 88.499969 139.500031 -370.000000
v 91.999969 147.000031 -370.000000
v 97.749969 144.187531 -370.000000
v 93.531219 136.968781 -370.000000
v 98.124969 133.875031 -370.000000
v 102.999969 140.750031 -370.000000
v 107.749969 136.687531 -370.000000
v 102.281219 130.218781 -370.000000
v 105.999969 126.000031 -370.000000
v 111.999969 132.000031 -370.000000
v 115.749969 126.687531 -370.000000
v 109.281219 121.218781 -370.000000
v 112.124969 115.875031 -370.000000
v 118.999969 120.750031 -370.000000
v 121.749969 114.187531 -370.000000
v 114.531219 109.968781 -370.000000
v 116.499969 103.500031 -370.000000
v 123.999969 107.000031 -370.000000
v 125.749969 99.187531 -370.000000
v 118.031219 96.468781 -370.000000
v 119.124969 88.875031 -370.000000
v 126.999969 90.750031 -370.000000
v 127.749969 81.687531 -370.000000
v 119.781219 80.718781 -370.000000
v 119.999969 72.000031 -370.000000
v 127.999969 72.000031 -370.000000
v 7.999968 56.000027 -370.000000
v 7.999970 56.000027 -346.000000
v -0.000030 56.000027 -346.000000
v -0.000032 56.000027 -370.000000
v 7.999968 0.000028 -370.000000
v 7.999970 0.000026 -346.000000
v 7.999970 56.000027 -346.000000
v 7.999968 56.000027 -370.000000
v 7.999968 0.000028 -370.000000
v 7.999968 56.000027 -370.000000
v -0.000032 56.000027 -370.000000
v -0.000032 0.000028 -370.000000
v 0.249998 81.687500 -25.999994
v 8.218748 80.718750 -25.999994
v 0.999998 90.750000 -25.999992
v -0.000002 72.000000 -25.999994
v 7.999998 72.000000 -25.999996
v 8.874998 88.875000 -25.999994
v 9.968748 96.468750 -25.999994
v 11.499998 103.500000 -25.999992
v 3.999998 107.000000 -25.999992
v 2.249998 99.187500 -25.999992
v 13.468748 109.968750 -25.999992
v 15.874998 115.875000 -25.999992
v 8.999998 120.750000 -25.999992
v 6.249998 114.187500 -25.999992
v 18.718748 121.218750 -25.999992
v 21.999998 126.000000 -25.999992
v 15.999998 132.000000 -25.999992
v 12.249998 126.687500 -25.999992
v 25.718748 130.218750 -25.999992
v 29.874998 133.875000 -25.999992
v 24.999998 140.750000 -25.999992
v 20.249998 136.687500 -25.999992
v 34.468746 136.968750 -25.999992
v 30.249998 144.187500 -25.999992
v 35.999996 147.000000 -25.999992
v 39.499996 139.500000 -25.999992
v 44.968746 141.468750 -25.999992
v 42.249996 149.187500 -25.999992
v 48.999996 150.750000 -25.999992
v 50.874996 142.875000 -25.999994
v 57.218746 143.718750 -25.999994
v 56.249996 151.687500 -25.999994
v 63.999996 152.000000 -25.999994
v 63.999996 144.000000 -25.999994
v 70.781250 143.718750 -25.999996
v 71.750000 151.687500 -25.999994
v 79.000000 150.750000 -25.999996
v 77.125000 142.875000 -25.999996
v 83.031250 141.468750 -25.999996
v 85.750000 149.187500 -25.999996
v 92.000000 147.000000 -25.999996
v 88.500000 139.500000 -25.999998
v 93.531250 136.968750 -25.999998
v 97.750000 144.187500 -25.999998
v 103.000000 140.750000 -25.999998
v 98.125000 133.875000 -25.999998
v 102.281250 130.218750 -26.000000
v 107.750000 136.687500 -26.000000
v 112.000000 132.000000 -26.000000
v 106.000000 126.000000 -26.000000
v 109.281250 121.218750 -26.000000
v 115.750000 126.687500 -26.000000
v 119.000000 120.750000 -26.000002
v 112.125000 115.875000 -26.000002
v 114.531250 109.968750 -26.000002
v 121.750000 114.187500 -26.000002
v 124.000000 107.000000 -26.000002
v 116.500000 103.500000 -26.000002
v 118.031250 96.468750 -26.000004
v 125.750000 99.187500 -26.000004
v 127.000000 90.750000 -26.000004
v 119.125000 88.875000 -26.000004
v 119.781250 80.718750 -26.000004
v 127.750000 81.687500 -26.000006
v 128.000000 72.000000 -26.000006
v 120.000000 72.000000 -26.000006
v 7.999998 72.000000 -25.999996
v 8.000000 72.000000 -1.999995
v 8.218748 80.718750 -25.999994
v 8.218750 80.718750 -1.999995
v 8.875000 88.875000 -1.999994
v 8.874998 88.875000 -25.999994
v 9.968748 96.468750 -25.999994
v 9.968750 96.468750 -1.999994
v 11.500000 103.500000 -1.999993
v 13.468750 109.968750 -1.999993
v 13.468748 109.968750 -25.999992
v 11.499998 103.500000 -25.999992
v 15.875000 115.875000 -1.999993
v 15.874998 115.875000 -25.999992
v 18.718748 121.218750 -25.999992
v 21.999998 126.000000 -25.999992
v 22.000000 126.000000 -1.999992
v 18.718750 121.218750 -1.999992
v 25.718748 130.218750 -25.999992
v 25.718750 130.218750 -1.999992
v 8.218719 80.718773 -346.000000
v 0.249970 81.687523 -346.000000
v 0.999970 90.750023 -346.000000
v -0.000030 72.000023 -346.000000
v 8.874969 88.875023 -346.000000
v 9.968719 96.468773 -346.000000
v 11.499969 103.500023 -346.000000
v 3.999970 107.000023 -346.000000
v 7.999970 72.000023 -346.000000
v 2.249970 99.187523 -346.000000
v 13.468719 109.968773 -346.000000
v 15.874969 115.875023 -346.000000
v 8.999969 120.750023 -346.000000
v 6.249970 114.187523 -346.000000
v 18.718719 121.218773 -346.000000
v 21.999969 126.000023 -346.000000
v 15.999969 132.000031 -346.000000
v 12.249969 126.687523 -346.000000
v 25.718719 130.218781 -346.000000
v 29.874969 133.875031 -346.000000
v 24.999969 140.750031 -346.000000
v 20.249969 136.687531 -346.000000
v 34.468719 136.968781 -346.000000
v 30.249969 144.187531 -346.000000
v 35.999969 147.000031 -346.000000
v 39.499969 139.500031 -346.000000
v 44.968719 141.468781 -346.000000
v 42.249969 149.187531 -346.000000
v 48.999969 150.750031 -346.000000
v 50.874969 142.875031 -346.000000
v 57.218719 143.718781 -346.000000
v 56.249969 151.687531 -346.000000
v 63.999969 152.000031 -346.000000
v 63.999969 144.000031 -346.000000
v 70.781219 143.718781 -346.000000
v 71.749969 151.687531 -346.000000
v 78.999969 150.750031 -346.000000
v 77.124969 142.875031 -346.000000
v 83.031219 141.468781 -346.000000
v 85.749969 149.187531 -346.000000
v 91.999969 147.000031 -346.000000
v 88.499969 139.500031 -346.000000
v 93.531219 136.968781 -346.000000
v 97.749969 144.187531 -346.000000
v 102.999969 140.750031 -346.000000
v 98.124969 133.875031 -346.000000
v 102.281219 130.218781 -346.000000
v 107.749969 136.687531 -346.000000
v 111.999969 132.000031 -346.000000
v 105.999969 126.000023 -346.000000
v 109.281219 121.218773 -346.000000
v 115.749969 126.687523 -346.000000
v 118.999969 120.750023 -346.000000
v 112.124969 115.875023 -346.000000
v 114.531219 109.968773 -346.000000
v 121.749969 114.187523 -346.000000
v 123.999969 107.000023 -346.000000
v 116.499969 103.500023 -346.000000
v 118.031219 96.468773 -346.000000
v 125.749969 99.187523 -346.000000
v 126.999969 90.750023 -346.000000
v 119.124969 88.875023 -346.000000
v 119.781219 80.718773 -346.000000
v 127.749969 81.687523 -346.000000
v 127.999969 72.000023 -346.000000
v 119.999969 72.000023 -346.000000
v 7.999968 72.000031 -370.000000
v 7.999970 72.000023 -346.000000
v 8.218718 80.718781 -370.000000
v 8.218719 80.718773 -346.000000
v 8.874969 88.875023 -346.000000
v 8.874968 88.875031 -370.000000
v 9.968718 96.468781 -370.000000
v 9.968719 96.468773 -346.000000
v 11.499969 103.500023 -346.000000
v 11.499968 103.500031 -370.000000
v 13.468718 109.968781 -370.000000
v 13.468719 109.968773 -346.000000
v 15.874969 115.875023 -346.000000
v 15.874968 115.875031 -370.000000
v 18.718718 121.218781 -370.000000
v 18.718719 121.218773 -346.000000
v 21.999969 126.000023 -346.000000
v 21.999968 126.000031 -370.000000
v 25.718718 130.218781 -370.000000
v 25.718719 130.218781 -346.000000
v 10.000000 56.000000 0.000003
v 0.000000 56.000000 0.000004
v 0.000000 72.000000 0.000005
v 10.000000 72.000000 0.000005
v 10.000000 72.000000 0.000005
v 0.000000 72.000000 0.000005
v -0.000000 72.000000 -1.999995
v -0.000002 72.000000 -25.999994
v 9.999997 72.000000 -27.999996
v -0.000002 72.000000 -27.999994
v -0.000000 56.000000 -1.999996
v 0.000000 56.000000 0.000004
v 10.000000 56.000000 0.000003
v 9.999997 56.000004 -27.999996
v -0.000002 56.000004 -25.999996
v -0.000002 56.000004 -27.999996
v 9.999997 56.000004 -27.999996
v 9.999997 72.000000 -27.999996
v -0.000002 72.000000 -27.999994
v -0.000002 56.000004 -27.999996
v 9.999997 56.000004 -27.999996
v 10.000000 72.000000 0.000005
v 9.999997 72.000000 -27.999996
v 10.000000 56.000000 0.000003
v 9.999969 56.000027 -344.000000
v -0.000030 56.000027 -344.000000
v -0.000030 72.000023 -344.000000
v 9.999969 72.000023 -344.000000
v 9.999969 72.000023 -344.000000
v -0.000030 72.000023 -344.000000
v -0.000030 72.000023 -346.000000
v -0.000032 72.000031 -370.000000
v 9.999968 72.000031 -372.000000
v -0.000033 72.000031 -372.000000
v -0.000030 56.000027 -346.000000
v -0.000030 56.000027 -344.000000
v 9.999969 56.000027 -344.000000
v 9.999968 56.000027 -372.000000
v -0.000032 56.000027 -370.000000
v -0.000033 56.000027 -372.000000
v 9.999968 56.000027 -372.000000
v -0.000033 72.000031 -372.000000
v -0.000033 56.000027 -372.000000
v 9.999968 72.000031 -372.000000
v 9.999968 56.000027 -372.000000
v 9.999969 56.000027 -344.000000
v 9.999969 72.000023 -344.000000
v 9.999968 72.000031 -372.000000
v 25.718748 130.218750 -25.999992
v 25.718750 130.218750 -1.999992
v 29.875000 133.875000 -1.999992
v 29.874998 133.875000 -25.999992
v 34.468746 136.968750 -25.999992
v 34.468750 136.968750 -1.999993
v 39.500000 139.500000 -1.999993
v 39.499996 139.500000 -25.999992
v 44.968746 141.468750 -25.999992
v 44.968750 141.468750 -1.999993
v 50.875000 142.875000 -1.999994
v 50.874996 142.875000 -25.999994
v 57.218746 143.718750 -25.999994
v 57.218750 143.718750 -1.999994
v 64.000000 144.000000 -1.999995
v 63.999996 144.000000 -25.999994
v 64.000000 144.000000 -1.999995
v 70.781250 143.718750 -1.999995
v 63.999996 144.000000 -25.999994
v 70.781250 143.718750 -25.999996
v 77.125000 142.875000 -25.999996
v 77.125000 142.875000 -1.999996
v 83.031250 141.468750 -1.999997
v 83.031250 141.468750 -25.999996
v 88.500000 139.500000 -25.999998
v 88.500000 139.500000 -1.999997
v 93.531250 136.968750 -1.999998
v 98.125000 133.875000 -1.999998
v 98.125000 133.875000 -25.999998
v 93.531250 136.968750 -25.999998
v 102.281250 130.218750 -1.999999
v 102.281250 130.218750 -26.000000
v 25.718718 130.218781 -370.000000
v 25.718719 130.218781 -346.000000
v 29.874969 133.875031 -346.000000
v 29.874968 133.875031 -370.000000
v 34.468719 136.968781 -370.000000
v 34.468719 136.968781 -346.000000
v 39.499969 139.500031 -346.000000
v 39.499969 139.500031 -370.000000
v 44.968719 141.468781 -370.000000
v 44.968719 141.468781 -346.000000
v 50.874969 142.875031 -346.000000
v 50.874969 142.875031 -370.000000
v 57.218719 143.718781 -370.000000
v 57.218719 143.718781 -346.000000
v 63.999969 144.000031 -346.000000
v 63.999969 144.000031 -370.000000
v 63.999969 144.000031 -346.000000
v 70.781219 143.718781 -346.000000
v 63.999969 144.000031 -370.000000
v 77.124969 142.875031 -346.000000
v 77.124969 142.875031 -370.000000
v 70.781219 143.718781 -370.000000
v 83.031219 141.468781 -346.000000
v 88.499969 139.500031 -346.000000
v 88.499969 139.500031 -370.000000
v 83.031219 141.468781 -370.000000
v 93.531219 136.968781 -346.000000
v 93.531219 136.968781 -370.000000
v 98.124969 133.875031 -370.000000
v 98.124969 133.875031 -346.000000
v 102.281219 130.218781 -346.000000
v 102.281219 130.218781 -370.000000
v 106.000000 126.000000 -26.000000
v 102.281250 130.218750 -26.000000
v 102.281250 130.218750 -1.999999
v 106.000000 126.000000 -2.000000
v 109.281250 121.218750 -2.000000
v 112.125000 115.875000 -2.000001
v 112.125000 115.875000 -26.000002
v 109.281250 121.218750 -26.000000
v 114.531250 109.968750 -2.000002
v 114.531250 109.968750 -26.000002
v 116.500000 103.500000 -26.000002
v 116.500000 103.500000 -2.000002
v 118.031250 96.468750 -2.000003
v 119.125000 88.875000 -26.000004
v 118.031250 96.468750 -26.000004
v 119.125000 88.875000 -2.000004
v 119.781250 80.718750 -2.000004
v 120.000000 72.000000 -26.000006
v 119.781250 80.718750 -26.000004
v 120.000000 72.000000 -2.000005
v 105.999969 126.000031 -370.000000
v 102.281219 130.218781 -370.000000
v 102.281219 130.218781 -346.000000
v 105.999969 126.000023 -346.000000
v 109.281219 121.218773 -346.000000
v 109.281219 121.218781 -370.000000
v 112.124969 115.875031 -370.000000
v 114.531219 109.968773 -346.000000
v 114.531219 109.968781 -370.000000
v 112.124969 115.875023 -346.000000
v 116.499969 103.500031 -370.000000
v 118.031219 96.468773 -346.000000
v 118.031219 96.468781 -370.000000
v 116.499969 103.500023 -346.000000
v 119.124969 88.875031 -370.000000
v 119.781219 80.718773 -346.000000
v 119.781219 80.718781 -370.000000
v 119.124969 88.875023 -346.000000
v 119.999969 72.000031 -370.000000
v 119.999969 72.000023 -346.000000
v 118.000000 56.000004 -28.000006
v 118.000000 72.000000 -28.000006
v 118.000000 72.000000 -0.000005
v 118.000000 56.000000 -0.000006
v 117.999969 56.000027 -372.000000
v 117.999969 72.000031 -372.000000
v 117.999969 72.000023 -344.000000
v 117.999969 56.000027 -344.000000
v 120.000000 0.000002 -26.000011
v 120.000000 56.000000 -2.000006
v 120.000000 0.000000 -2.000010
v 120.000000 56.000004 -26.000006
v 119.999969 0.000028 -370.000000
v 119.999969 56.000027 -370.000000
v 119.999969 56.000027 -346.000000
v 119.999969 0.000026 -346.000000
v 120.000000 0.000000 -2.000010
v 120.000000 56.000000 -2.000006
v 124.800049 22.574997 -2.000009
v 128.000000 56.000000 -2.000007
v 128.000000 0.875000 -2.000011
v 128.000000 0.000000 -2.000011
v 128.000000 56.000000 -0.000007
v 118.000000 72.000000 -0.000005
v 128.000000 72.000000 -0.000006
v 118.000000 56.000000 -0.000006
v 128.000000 72.000000 -2.000006
v 128.000000 72.000000 -0.000006
v 118.000000 72.000000 -0.000005
v 118.000000 72.000000 -28.000006
v 128.000000 72.000000 -26.000006
v 128.000000 72.000000 -28.000006
v 118.000000 56.000000 -0.000006
v 128.000000 56.000000 -0.000007
v 128.000000 56.000000 -2.000007
v 128.000000 56.000004 -26.000008
v 118.000000 56.000004 -28.000006
v 128.000000 56.000004 -28.000008
v 128.000000 56.000004 -26.000008
v 128.000000 56.000000 -2.000007
v 120.000000 56.000000 -2.000006
v 120.000000 56.000004 -26.000006
v 128.000000 0.000002 -26.000011
v 128.000000 56.000004 -26.000008
v 120.000000 56.000004 -26.000006
v 120.000000 0.000002 -26.000011
v 128.000000 56.000004 -28.000008
v 128.000000 72.000000 -28.000006
v 118.000000 72.000000 -28.000006
v 118.000000 56.000004 -28.000006
v 127.999969 56.000027 -344.000000
v 117.999969 72.000023 -344.000000
v 127.999969 72.000023 -344.000000
v 117.999969 56.000027 -344.000000
v 127.999969 72.000023 -346.000000
v 127.999969 72.000023 -344.000000
v 117.999969 72.000023 -344.000000
v 117.999969 72.000031 -372.000000
v 127.999969 72.000031 -370.000000
v 127.999969 72.000031 -372.000000
v 117.999969 56.000027 -344.000000
v 127.999969 56.000027 -344.000000
v 127.999969 56.000027 -346.000000
v 127.999969 56.000027 -370.000000
v 117.999969 56.000027 -372.000000
v 127.999969 56.000027 -372.000000
v 127.999969 0.000026 -346.000000
v 119.999969 0.000026 -346.000000
v 119.999969 56.000027 -346.000000
v 127.999969 56.000027 -346.000000
v 127.999969 56.000027 -370.000000
v 119.999969 56.000027 -346.000000
v 119.999969 56.000027 -370.000000
v 127.999969 56.000027 -346.000000
v 127.999969 0.000028 -370.000000
v 119.999969 56.000027 -370.000000
v 119.999969 0.000028 -370.000000
v 127.999969 56.000027 -370.000000
v 127.999969 56.000027 -372.000000
v 127.999969 72.000031 -372.000000
v 117.999969 72.000031 -372.000000
v 117.999969 56.000027 -372.000000
v -56.000015 0.000014 -184.000000
v -56.000015 0.000013 -176.000000
v -56.000015 72.000015 -175.999985
v -56.000015 72.000015 -183.999985
v -56.000023 0.000021 -272.000000
v -56.000023 72.000023 -264.000000
v -56.000023 72.000023 -272.000000
v -56.000023 0.000020 -264.000000
v 0.000000 56.000000 0.000004
v 0.000000 72.000000 0.000005
v -0.000000 72.000000 -1.999995
v -0.000000 56.000000 -1.999996
v 0.000000 0.000000 0.000000
v -0.000000 0.000000 -2.000000
v -0.000002 56.000004 -25.999996
v -0.000002 72.000000 -25.999994
v -0.000002 72.000000 -27.999994
v -0.000015 72.000015 -176.000000
v -0.000002 0.000002 -26.000000
v -0.000015 0.000013 -176.000000
v -0.000015 0.000013 -176.000000
v -56.000015 72.000015 -175.999985
v -56.000015 0.000013 -176.000000
v -0.000015 72.000015 -176.000000
v -0.000024 0.000021 -272.000000
v -56.000023 0.000021 -272.000000
v -56.000023 72.000023 -272.000000
v -0.000024 72.000023 -272.000000
v -0.000030 72.000023 -344.000000
v -0.000030 72.000023 -346.000000
v -0.000030 56.000027 -346.000000
v -0.000030 0.000026 -346.000000
v -0.000024 72.000023 -272.000000
v -0.000024 0.000021 -272.000000
v -0.000032 56.000027 -370.000000
v -0.000032 72.000031 -370.000000
v -0.000033 72.000031 -372.000000
v -0.000033 56.000027 -372.000000
v -0.000032 0.000028 -370.000000
v -0.000033 0.000028 -372.000000
v 128.000000 56.000000 -2.000007
v 128.000000 72.000000 -0.000006
v 128.000000 56.000000 -0.000007
v 128.000000 72.000000 -2.000006
v 128.000000 0.875000 -2.000011
v 128.000000 0.000000 -0.000011
v 128.000000 72.000000 -28.000006
v 128.000000 72.000000 -26.000006
v 128.000000 56.000004 -26.000008
v 127.999985 72.000015 -176.000000
v 128.000000 0.000002 -26.000011
v 127.999969 0.000024 -320.000000
v 127.999985 72.000015 -176.000000
v 128.000000 0.000002 -26.000011
v 127.999977 72.000023 -272.000000
v 127.999969 0.000026 -346.000000
v 127.999969 56.000027 -346.000000
v 127.999969 72.000023 -344.000000
v 127.999969 72.000023 -346.000000
v 127.999969 56.000027 -372.000000
v 127.999969 72.000031 -370.000000
v 127.999969 56.000027 -370.000000
v 127.999969 72.000031 -372.000000
v 127.999969 0.000028 -372.000000
v 127.999969 0.000028 -370.000000
v -56.000015 136.000015 -175.999985
v -56.000015 136.000015 -183.999985
v -56.000015 132.000015 -183.999985
v -56.000015 120.000015 -183.999985
v -56.000015 72.000015 -175.999985
v -56.000015 72.000015 -183.999985
v -56.000023 120.000023 -264.000000
v -56.000023 132.000015 -264.000000
v -56.000023 72.000023 -272.000000
v -56.000023 136.000015 -272.000000
v -56.000023 72.000023 -264.000000
v -56.000023 136.000015 -264.000000
v -0.000015 152.000015 -175.999985
v -56.000015 152.000015 -175.999985
v -56.000015 136.000015 -175.999985
v -0.000015 72.000015 -176.000000
v 0.249985 81.687515 -176.000000
v -0.000015 152.000015 -175.999985
v -0.000015 72.000015 -176.000000
v 0.999985 90.750015 -176.000000
v 2.249985 99.187515 -176.000000
v 3.999985 107.000015 -175.999985
v 6.249985 114.187515 -175.999985
v 8.999985 120.750015 -175.999985
v 12.249985 126.687515 -175.999985
v 15.999985 132.000015 -175.999985
v 20.249985 136.687515 -175.999985
v 24.999985 140.750015 -175.999985
v 30.249985 144.187515 -175.999985
v 35.999985 147.000015 -175.999985
v 42.249985 149.187515 -176.000000
v 48.999985 150.750015 -176.000000
v 56.249985 151.687515 -176.000000
v 63.999985 152.000015 -176.000000
v -56.000015 72.000015 -175.999985
v -56.000023 136.000015 -272.000000
v -56.000023 152.000015 -271.999969
v -0.000024 152.000015 -272.000000
v -56.000023 72.000023 -272.000000
v -0.000024 72.000023 -272.000000
v -0.000024 152.000015 -272.000000
v 0.249976 81.687523 -272.000000
v -0.000024 72.000023 -272.000000
v 0.999976 90.750023 -272.000000
v 2.249976 99.187523 -272.000000
v 3.999976 107.000023 -272.000000
v 6.249976 114.187523 -272.000000
v 8.999976 120.750023 -272.000000
v 12.249976 126.687523 -272.000000
v 15.999976 132.000015 -272.000000
v 20.249977 136.687515 -272.000000
v 24.999977 140.750015 -272.000000
v 30.249977 144.187515 -272.000000
v 35.999977 147.000015 -272.000000
v 42.249977 149.187515 -272.000000
v 48.999977 150.750015 -272.000000
v 56.249977 151.687515 -272.000000
v 63.999977 152.000015 -272.000000
v 0.000000 152.000000 0.000011
v 0.250000 81.687500 0.000006
v 0.000000 72.000000 0.000005
v 1.000000 90.750000 0.000007
v 2.250000 99.187500 0.000007
v 4.000000 107.000000 0.000008
v 6.250000 114.187500 0.000008
v 9.000000 120.750000 0.000008
v 12.250000 126.687500 0.000008
v 16.000000 132.000000 0.000009
v 20.250000 136.687500 0.000009
v 25.000000 140.750000 0.000008
v 30.250000 144.187500 0.000008
v 36.000000 147.000000 0.000008
v 42.250000 149.187500 0.000008
v 49.000000 150.750000 0.000007
v 56.250000 151.687500 0.000007
v 64.000000 152.000000 0.000006
v 128.000000 152.000000 0.000000
v 71.750000 151.687500 0.000005
v 79.000000 150.750000 0.000004
v 85.750000 149.187500 0.000004
v 92.000000 147.000000 0.000003
v 97.750000 144.187500 0.000002
v 103.000000 140.750000 0.000002
v 107.750000 136.687500 0.000001
v 112.000000 132.000000 0.000000
v 115.750000 126.687500 -0.000001
v 119.000000 120.750000 -0.000001
v 121.750000 114.187500 -0.000002
v 124.000000 107.000000 -0.000003
v 125.750000 99.187500 -0.000004
v 127.000000 90.750000 -0.000004
v 127.750000 81.687500 -0.000005
v 128.000000 72.000000 -0.000006
v -0.000000 72.000000 -1.999995
v 0.000000 72.000000 0.000005
v 0.250000 81.687500 -1.999994
v 0.250000 81.687500 0.000006
v 1.000000 90.750000 0.000007
v 1.000000 90.750000 -1.999993
v 2.250000 99.187500 -1.999993
v 2.250000 99.187500 0.000007
v 4.000000 107.000000 0.000008
v 4.000000 107.000000 -1.999992
v 6.250000 114.187500 -1.999992
v 6.250000 114.187500 0.000008
v 9.000000 120.750000 0.000008
v 9.000000 120.750000 -1.999992
v 12.250000 126.687500 -1.999992
v 12.250000 126.687500 0.000008
v 16.000000 132.000000 0.000009
v 16.000000 132.000000 -1.999991
v 20.250000 136.687500 -1.999991
v 20.250000 136.687500 0.000009
v -0.000015 72.000015 -176.000000
v -0.000002 72.000000 -25.999994
v 0.249985 81.687515 -176.000000
v 0.249998 81.687500 -25.999994
v 0.999998 90.750000 -25.999992
v 0.999985 90.750015 -176.000000
v 2.249985 99.187515 -176.000000
v 2.249998 99.187500 -25.999992
v 3.999998 107.000000 -25.999992
v 3.999985 107.000015 -175.999985
v 6.249985 114.187515 -175.999985
v 6.249998 114.187500 -25.999992
v 8.999998 120.750000 -25.999992
v 8.999985 120.750015 -175.999985
v 12.249985 126.687515 -175.999985
v 12.249998 126.687500 -25.999992
v 15.999998 132.000000 -25.999992
v 15.999985 132.000015 -175.999985
v 20.249985 136.687515 -175.999985
v 20.249998 136.687500 -25.999992
v -0.000030 72.000023 -346.000000
v -0.000024 72.000023 -272.000000
v 0.249970 81.687523 -346.000000
v 0.249976 81.687523 -272.000000
v 0.999976 90.750023 -272.000000
v 0.999970 90.750023 -346.000000
v 2.249970 99.187523 -346.000000
v 3.999970 107.000023 -346.000000
v 3.999976 107.000023 -272.000000
v 2.249976 99.187523 -272.000000
v 6.249970 114.187523 -346.000000
v 6.249976 114.187523 -272.000000
v 8.999976 120.750023 -272.000000
v 8.999969 120.750023 -346.000000
v 12.249969 126.687523 -346.000000
v 12.249976 126.687523 -272.000000
v 15.999976 132.000015 -272.000000
v 15.999969 132.000031 -346.000000
v 20.249969 136.687531 -346.000000
v 20.249977 136.687515 -272.000000
v 0.249967 81.687531 -372.000000
v -0.000033 152.000031 -372.000000
v -0.000033 72.000031 -372.000000
v 0.999967 90.750031 -372.000000
v 2.249968 99.187531 -372.000000
v 3.999968 107.000031 -372.000000
v 6.249968 114.187531 -372.000000
v 8.999968 120.750031 -372.000000
v 12.249968 126.687531 -372.000000
v 15.999968 132.000031 -372.000000
v 20.249968 136.687531 -372.000000
v 24.999968 140.750031 -372.000000
v 30.249968 144.187531 -372.000000
v 35.999966 147.000031 -372.000000
v 42.249966 149.187531 -372.000000
v 48.999966 150.750031 -372.000000
v 56.249966 151.687531 -372.000000
v 63.999966 152.000031 -372.000000
v 71.749969 151.687531 -372.000000
v 127.999969 152.000031 -372.000000
v 78.999969 150.750031 -372.000000
v 85.749969 149.187531 -372.000000
v 91.999969 147.000031 -372.000000
v 97.749969 144.187531 -372.000000
v 102.999969 140.750031 -372.000000
v 107.749969 136.687531 -372.000000
v 111.999969 132.000031 -372.000000
v 115.749969 126.687531 -372.000000
v 118.999969 120.750031 -372.000000
v 121.749969 114.187531 -372.000000
v 123.999969 107.000031 -372.000000
v 125.749969 99.187531 -372.000000
v 126.999969 90.750031 -372.000000
v 127.749969 81.687531 -372.000000
v 127.999969 72.000031 -372.000000
v -0.000033 72.000031 -372.000000
v -0.000032 72.000031 -370.000000
v 0.249967 81.687531 -372.000000
v 0.249968 81.687531 -370.000000
v 0.999968 90.750031 -370.000000
v 2.249968 99.187531 -370.000000
v 2.249968 99.187531 -372.000000
v 0.999967 90.750031 -372.000000
v 3.999968 107.000031 -370.000000
v 6.249968 114.187531 -370.000000
v 6.249968 114.187531 -372.000000
v 3.999968 107.000031 -372.000000
v 8.999968 120.750031 -370.000000
v 12.249968 126.687531 -370.000000
v 12.249968 126.687531 -372.000000
v 8.999968 120.750031 -372.000000
v 15.999968 132.000031 -370.000000
v 15.999968 132.000031 -372.000000
v 20.249968 136.687531 -372.000000
v 20.249968 136.687531 -370.000000
v -56.000015 132.000015 -183.999985
v -56.000015 132.000015 -175.999985
v 15.999985 132.000015 -175.999985
v 15.999976 132.000015 -272.000000
v -56.000023 132.000015 -264.000000
v -56.000023 132.000015 -272.000000
v 20.249985 136.687515 -175.999985
v 20.249977 136.687515 -272.000000
v 15.999976 132.000015 -272.000000
v 15.999985 132.000015 -175.999985
v 25.000000 140.750000 -1.999992
v 20.250000 136.687500 -1.999991
v 25.000000 140.750000 0.000008
v 20.250000 136.687500 0.000009
v 30.250000 144.187500 -1.999992
v 30.250000 144.187500 0.000008
v 36.000000 147.000000 0.000008
v 36.000000 147.000000 -1.999992
v 42.250000 149.187500 -1.999992
v 42.250000 149.187500 0.000008
v 49.000000 150.750000 0.000007
v 49.000000 150.750000 -1.999993
v 56.250000 151.687500 -1.999993
v 56.250000 151.687500 0.000007
v 64.000000 152.000000 0.000006
v 64.000000 152.000000 0.000006
v 71.750000 151.687500 0.000005
v 64.000000 152.000000 -1.999994
v 64.000000 152.000000 -1.999994
v 71.750000 151.687500 -1.999995
v 79.000000 150.750000 -1.999995
v 79.000000 150.750000 0.000004
v 85.750000 149.187500 0.000004
v 92.000000 147.000000 -1.999997
v 85.750000 149.187500 -1.999996
v 92.000000 147.000000 0.000003
v 97.750000 144.187500 0.000002
v 97.750000 144.187500 -1.999998
v 103.000000 140.750000 -1.999998
v 103.000000 140.750000 0.000002
v 107.750000 136.687500 0.000001
v 107.750000 136.687500 -1.999999
v 24.999985 140.750015 -175.999985
v 20.249985 136.687515 -175.999985
v 24.999998 140.750000 -25.999992
v 20.249998 136.687500 -25.999992
v 30.249985 144.187515 -175.999985
v 30.249998 144.187500 -25.999992
v 35.999996 147.000000 -25.999992
v 35.999985 147.000015 -175.999985
v 42.249985 149.187515 -176.000000
v 42.249996 149.187500 -25.999992
v 48.999996 150.750000 -25.999992
v 48.999985 150.750015 -176.000000
v 56.249985 151.687515 -176.000000
v 63.999985 152.000015 -176.000000
v 63.999996 152.000000 -25.999994
v 56.249996 151.687500 -25.999994
v 63.999996 152.000000 -25.999994
v 71.750000 151.687500 -25.999994
v 63.999985 152.000015 -176.000000
v 71.749985 151.687515 -176.000000
v 63.999985 152.000015 -176.000000
v 71.749985 151.687515 -176.000000
v 63.999977 152.000015 -272.000000
v 71.749977 151.687515 -272.000000
v 63.999977 152.000015 -272.000000
v 71.749977 151.687515 -272.000000
v 63.999969 152.000031 -346.000000
v 78.999985 150.750015 -176.000000
v 78.999977 150.750015 -272.000000
v 78.999985 150.750015 -176.000000
v 78.999969 150.750031 -346.000000
v 71.749969 151.687531 -346.000000
v 78.999977 150.750015 -272.000000
v 85.749985 149.187515 -176.000000
v 85.749977 149.187515 -272.000000
v 91.999977 147.000015 -272.000000
v 85.749977 149.187515 -272.000000
v 91.999977 147.000015 -272.000000
v 91.999969 147.000031 -346.000000
v 97.749977 144.187515 -272.000000
v 102.999977 140.750015 -272.000000
v 97.749977 144.187515 -272.000000
v 97.749985 144.187515 -176.000000
v 56.249985 151.687515 -176.000000
v 63.999985 152.000015 -176.000000
v 63.999977 152.000015 -272.000000
v 56.249977 151.687515 -272.000000
v 63.999969 152.000031 -346.000000
v 56.249969 151.687531 -346.000000
v 63.999977 152.000015 -272.000000
v 56.249977 151.687515 -272.000000
v 79.000000 150.750000 -25.999996
v 85.750000 149.187500 -25.999996
v 85.749985 149.187515 -176.000000
v 85.749969 149.187531 -346.000000
v 91.999985 147.000015 -176.000000
v 91.999985 147.000015 -176.000000
v 97.750000 144.187500 -25.999998
v 97.749985 144.187515 -176.000000
v 92.000000 147.000000 -25.999996
v 97.749969 144.187531 -346.000000
v 102.999985 140.750015 -176.000000
v 102.999985 140.750015 -176.000000
v 102.999977 140.750015 -272.000000
v 102.999969 140.750031 -346.000000
v 107.749985 136.687515 -176.000000
v 107.749977 136.687515 -272.000000
v 48.999977 150.750015 -272.000000
v 48.999977 150.750015 -272.000000
v 103.000000 140.750000 -25.999998
v 107.750000 136.687500 -26.000000
v 107.749985 136.687515 -176.000000
v 107.749977 136.687515 -272.000000
v 107.749969 136.687531 -346.000000
v 48.999985 150.750015 -176.000000
v 48.999969 150.750031 -346.000000
v 42.249985 149.187515 -176.000000
v 42.249969 149.187531 -346.000000
v 42.249977 149.187515 -272.000000
v 35.999977 147.000015 -272.000000
v 35.999969 147.000031 -346.000000
v 42.249977 149.187515 -272.000000
v 30.249969 144.187531 -346.000000
v 30.249977 144.187515 -272.000000
v 35.999977 147.000015 -272.000000
v 24.999977 140.750015 -272.000000
v 35.999985 147.000015 -175.999985
v 24.999969 140.750031 -346.000000
v 30.249985 144.187515 -175.999985
v 30.249977 144.187515 -272.000000
v 20.249969 136.687531 -346.000000
v 24.999977 140.750015 -272.000000
v 24.999985 140.750015 -175.999985
v 20.249985 136.687515 -175.999985
v 20.249977 136.687515 -272.000000
v 20.249977 136.687515 -272.000000
v 20.249968 136.687531 -372.000000
v 20.249968 136.687531 -370.000000
v 24.999968 140.750031 -370.000000
v 24.999968 140.750031 -372.000000
v 30.249968 144.187531 -372.000000
v 30.249968 144.187531 -370.000000
v 35.999969 147.000031 -370.000000
v 35.999966 147.000031 -372.000000
v 42.249966 149.187531 -372.000000
v 42.249969 149.187531 -370.000000
v 48.999969 150.750031 -370.000000
v 48.999966 150.750031 -372.000000
v 56.249966 151.687531 -372.000000
v 56.249969 151.687531 -370.000000
v 63.999969 152.000031 -370.000000
v 63.999969 152.000031 -370.000000
v 71.749969 151.687531 -370.000000
v 63.999966 152.000031 -372.000000
v 63.999966 152.000031 -372.000000
v 71.749969 151.687531 -372.000000
v 78.999969 150.750031 -372.000000
v 78.999969 150.750031 -370.000000
v 85.749969 149.187531 -370.000000
v 85.749969 149.187531 -372.000000
v 91.999969 147.000031 -372.000000
v 91.999969 147.000031 -370.000000
v 97.749969 144.187531 -370.000000
v 102.999969 140.750031 -372.000000
v 97.749969 144.187531 -372.000000
v 102.999969 140.750031 -370.000000
v 107.749969 136.687531 -370.000000
v 107.749969 136.687531 -372.000000
v 112.000000 132.000000 -2.000000
v 107.750000 136.687500 -1.999999
v 107.750000 136.687500 0.000001
v 112.000000 132.000000 0.000000
v 115.750000 126.687500 -0.000001
v 115.750000 126.687500 -2.000000
v 119.000000 120.750000 -2.000001
v 121.750000 114.187500 -0.000002
v 121.750000 114.187500 -2.000002
v 119.000000 120.750000 -0.000001
v 124.000000 107.000000 -2.000003
v 124.000000 107.000000 -0.000003
v 125.750000 99.187500 -0.000004
v 125.750000 99.187500 -2.000004
v 127.000000 90.750000 -2.000004
v 127.750000 81.687500 -0.000005
v 127.750000 81.687500 -2.000005
v 127.000000 90.750000 -0.000004
v 128.000000 72.000000 -2.000006
v 128.000000 72.000000 -0.000006
v 112.000000 132.000000 -26.000000
v 111.999985 132.000015 -176.000000
v 107.750000 136.687500 -26.000000
v 107.749985 136.687515 -176.000000
v 111.999985 132.000015 -176.000000
v 111.999977 132.000015 -272.000000
v 107.749985 136.687515 -176.000000
v 115.750000 126.687500 -26.000000
v 115.749985 126.687515 -176.000000
v 115.749977 126.687523 -272.000000
v 111.999977 132.000015 -272.000000
v 115.749977 126.687523 -272.000000
v 111.999969 132.000031 -346.000000
v 118.999985 120.750015 -176.000000
v 115.749985 126.687515 -176.000000
v 119.000000 120.750000 -26.000002
v 118.999985 120.750015 -176.000000
v 118.999977 120.750023 -272.000000
v 118.999969 120.750023 -346.000000
v 115.749969 126.687523 -346.000000
v 118.999977 120.750023 -272.000000
v 121.750000 114.187500 -26.000002
v 121.749985 114.187515 -176.000000
v 121.749977 114.187523 -272.000000
v 121.749969 114.187523 -346.000000
v 123.999985 107.000015 -176.000000
v 121.749985 114.187515 -176.000000
v 124.000000 107.000000 -26.000002
v 123.999977 107.000023 -272.000000
v 121.749977 114.187523 -272.000000
v 123.999985 107.000015 -176.000000
v 123.999969 107.000023 -346.000000
v 123.999977 107.000023 -272.000000
v 125.750000 99.187500 -26.000004
v 125.749985 99.187515 -176.000000
v 125.749977 99.187523 -272.000000
v 125.749969 99.187523 -346.000000
v 126.999985 90.750015 -176.000000
v 125.749985 99.187515 -176.000000
v 127.000000 90.750000 -26.000004
v 126.999977 90.750023 -272.000000
v 125.749977 99.187523 -272.000000
v 126.999985 90.750015 -176.000000
v 126.999969 90.750023 -346.000000
v 126.999977 90.750023 -272.000000
v 127.750000 81.687500 -26.000006
v 127.749985 81.687515 -176.000000
v 127.749985 81.687515 -176.000000
v 127.749977 81.687523 -272.000000
v 127.749977 81.687523 -272.000000
v 127.749969 81.687523 -346.000000
v 127.999985 72.000015 -176.000000
v 127.999985 72.000015 -176.000000
v 127.999977 72.000023 -272.000000
v 127.999977 72.000023 -272.000000
v 127.999969 72.000023 -346.000000
v 107.749977 136.687515 -272.000000
v 107.749977 136.687515 -272.000000
v 107.749969 136.687531 -346.000000
v 128.000000 72.000000 -26.000006
v 111.999969 132.000031 -370.000000
v 111.999969 132.000031 -372.000000
v 107.749969 136.687531 -370.000000
v 107.749969 136.687531 -372.000000
v 115.749969 126.687531 -370.000000
v 115.749969 126.687531 -372.000000
v 118.999969 120.750031 -372.000000
v 118.999969 120.750031 -370.000000
v 121.749969 114.187531 -370.000000
v 121.749969 114.187531 -372.000000
v 123.999969 107.000031 -372.000000
v 123.999969 107.000031 -370.000000
v 125.749969 99.187531 -370.000000
v 126.999969 90.750031 -372.000000
v 125.749969 99.187531 -372.000000
v 126.999969 90.750031 -370.000000
v 127.749969 81.687531 -370.000000
v 127.999969 72.000031 -372.000000
v 127.749969 81.687531 -372.000000
v 127.999969 72.000031 -370.000000
v -64.000023 8.000019 -256.000000
v -64.000015 112.000015 -191.999985
v -64.000023 112.000023 -255.999985
v -64.000015 8.000014 -192.000000
vn 1.0000 -0.0000 -0.0000
vn -0.0000 -0.0000 -1.0000
vn -0.0000 -1.0000 -0.0000
vn -0.0000 -0.0000 1.0000
vn -0.0000 1.0000 -0.0000
vn 0.9952 -0.0980 -0.0000
vn 0.9808 -0.1951 -0.0000
vn 0.9570 -0.2902 0.0001
vn 0.9570 -0.2902 -0.0000
vn 0.9239 -0.3826 -0.0000
vn 0.8820 -0.4713 -0.0001
vn 0.8820 -0.4713 -0.0000
vn 0.8315 -0.5555 -0.0000
vn 0.8315 -0.5555 0.0001
vn 0.7731 -0.6343 -0.0000
vn 0.7072 -0.7071 -0.0000
vn 0.6345 -0.7729 -0.0000
vn 0.5556 -0.8315 -0.0000
vn 0.4714 -0.8819 -0.0000
vn 0.6344 -0.7730 -0.0000
vn 0.3827 -0.9239 -0.0000
vn 0.2903 -0.9569 -0.0000
vn 0.1951 -0.9808 -0.0000
vn 0.0980 -0.9952 -0.0000
vn -0.0980 -0.9952 -0.0000
vn -0.1951 -0.9808 -0.0000
vn -0.2903 -0.9569 -0.0000
vn -0.3827 -0.9239 -0.0000
vn -0.4714 -0.8819 -0.0000
vn -0.5556 -0.8315 -0.0000
vn -0.6344 -0.7730 -0.0000
vn -0.7072 -0.7071 -0.0000
vn -0.7731 -0.6343 -0.0000
vn -0.6345 -0.7729 -0.0000
vn -0.8315 -0.5555 -0.0000
vn -0.8315 -0.5555 -0.0001
vn -0.8820 -0.4713 0.0001
vn -0.8820 -0.4713 -0.0000
vn -0.9239 -0.3826 -0.0000
vn -0.9570 -0.2902 -0.0001
vn -0.9570 -0.2902 -0.0000
vn -0.9808 -0.1951 -0.0000
vn -0.9952 -0.0980 -0.0000
vn -1.0000 -0.0000 -0.0000
vn 0.9239 -0.3826 0.0001
vn 0.7731 -0.6343 0.0001
vn 0.7730 -0.6343 0.0001
vn 0.7071 -0.7071 -0.0000
vn 0.7062 -0.7080 -0.0000
vn 0.7809 -0.6247 -0.0000
vn 0.1118 -0.9937 -0.0000
vn 0.2221 -0.9750 -0.0000
vn 0.3297 -0.9441 -0.0000
vn 0.4332 -0.9013 -0.0000
vn 0.5312 -0.8472 -0.0000
vn 0.6226 -0.7826 -0.0000
vn 0.7062 -0.7081 -0.0000
vn -0.7731 -0.6343 -0.0001
vn -0.9239 -0.3826 -0.0001
vn -0.7071 -0.7071 -0.0000
vn -0.7730 -0.6343 -0.0001
vt 1.078125 0.937500
vt 1.015625 0.875000
vt 0.453125 0.937500
vt 1.078125 0.562500
vt 1.078125 0.000000
vt 0.515625 0.875000
vt 1.015625 0.000000
vt 0.453125 0.562500
vt 0.515625 0.000000
vt 0.453125 0.000000
vt 0.578125 0.062500
vt 0.578125 0.875000
vt 0.578125 0.000000
vt 0.515625 -0.125000
vt 0.515625 0.375000
vt 0.578125 0.375000
vt 0.578125 -0.125000
vt 0.998047 0.763184
vt 0.935791 0.755615
vt 0.930664 0.819336
vt 0.937500 0.687500
vt 0.992188 0.833984
vt 1.000000 0.687500
vt 0.922119 0.878662
vt 0.982422 0.899902
vt 0.910156 0.933594
vt 0.968750 0.960938
vt 0.951172 1.017090
vt 0.894775 0.984131
vt 0.875977 1.030273
vt 0.929688 1.068359
vt 0.904297 1.114746
vt 0.853760 1.072021
vt 0.828125 1.109375
vt 0.875000 1.156250
vt 0.841797 1.192871
vt 0.799072 1.142334
vt 0.766602 1.170898
vt 0.804688 1.224609
vt 0.763672 1.251465
vt 0.730713 1.195068
vt 0.691406 1.214844
vt 0.718750 1.273438
vt 0.669922 1.290527
vt 0.648682 1.230225
vt 0.602539 1.241211
vt 0.617188 1.302734
vt 0.560547 1.310059
vt 0.552979 1.247803
vt 0.500000 1.250000
vt 0.500000 1.312500
vt 0.437500 0.000000
vt 0.500000 0.437500
vt 0.500000 0.000000
vt 0.437500 0.437500
vt 0.437500 0.687500
vt 0.500000 0.687500
vt 0.500000 0.875000
vt 0.437500 0.875000
vt 0.312500 0.000000
vt 0.312500 0.437500
vt 0.515625 0.437500
vt 0.453125 0.437500
vt 0.578125 0.003906
vt 0.578125 0.441406
vt 0.515625 0.441406
vt 0.515625 0.003906
vt 0.562500 0.871094
vt 0.500000 0.683594
vt 0.562500 0.683594
vt 0.500000 0.871094
vt 0.562500 0.003906
vt 0.500000 0.441406
vt 0.562500 0.441406
vt 0.500000 0.003906
vt 0.000000 -0.047363
vt 0.000000 0.029297
vt 0.062500 -0.047363
vt 0.062500 0.029297
vt 0.000000 -0.125000
vt 0.062500 -0.125000
vt 0.062500 0.104980
vt 0.000000 0.104980
vt 0.000000 0.179688
vt 0.062500 0.179688
vt 0.062500 0.253418
vt 0.000000 0.253418
vt 0.000000 0.326172
vt 0.062500 0.326172
vt 0.062500 0.397949
vt 0.000000 0.397949
vt 0.000000 0.468750
vt 0.062500 0.468750
vt 0.062500 0.538574
vt 0.000000 0.538574
vt 0.000000 0.607422
vt 0.062500 0.607422
vt 0.062500 0.675293
vt 0.000000 0.675293
vt 0.000000 0.742188
vt 0.062500 0.742188
vt 0.062500 0.808105
vt 0.000000 0.808105
vt 0.000000 0.873047
vt 0.062500 0.873047
vt 0.062500 0.937012
vt 0.000000 0.937012
vt 0.000000 1.000000
vt 0.062500 1.000000
vt 0.930176 1.000000
vt 0.861328 0.812500
vt 0.930176 0.812500
vt 0.861328 1.000000
vt 1.000000 0.812500
vt 1.000000 1.000000
vt 0.793457 1.000000
vt 0.793457 0.812500
vt 0.726563 0.812500
vt 0.726563 1.000000
vt 0.660645 1.000000
vt 0.660645 0.812500
vt 0.595703 0.812500
vt 0.595703 1.000000
vt 0.531738 1.000000
vt 0.531738 0.812500
vt 0.468750 0.812500
vt 0.468750 1.000000
vt 0.406738 1.000000
vt 0.406738 0.812500
vt 0.421875 0.437500
vt 0.500000 0.562500
vt 0.421875 0.562500
vt 0.421875 0.890625
vt 0.500000 0.890625
vt 0.421875 0.671875
vt 0.500000 0.671875
vt 0.515625 0.562500
vt 0.437500 0.562500
vt 0.296875 0.437500
vt 0.296875 0.562500
vt 0.593750 0.441406
vt 0.515625 0.566406
vt 0.593750 0.566406
vt 0.578125 0.667969
vt 0.500000 0.667969
vt 0.578125 0.886719
vt 0.500000 0.886719
vt 0.500000 0.566406
vt 0.578125 0.566406
vt 0.345703 0.812500
vt 0.345703 1.000000
vt 0.285645 1.000000
vt 0.285645 0.812500
vt 0.226563 0.812500
vt 0.226563 1.000000
vt 0.168457 1.000000
vt 0.168457 0.812500
vt 0.111328 0.812500
vt 0.111328 1.000000
vt 0.055176 1.000000
vt 0.055176 0.812500
vt 0.000000 0.812500
vt 0.562500 0.000000
vt 0.525000 0.176367
vt 0.562500 0.437500
vt 0.500000 0.006836
vt 0.578125 0.562500
vt 0.578125 0.437500
vt 0.578125 0.890625
vt 0.578125 0.671875
vt 0.562500 0.875000
vt 0.562500 0.687500
vt 0.593750 0.562500
vt 0.593750 0.437500
vt 0.437500 0.566406
vt 0.437500 0.441406
vt 0.421875 0.667969
vt 0.421875 0.886719
vt 0.453125 0.441406
vt 0.453125 0.003906
vt 0.437500 0.871094
vt 0.437500 0.683594
vt 0.437500 0.003906
vt 0.421875 0.566406
vt 0.421875 0.441406
vt 0.015625 0.125000
vt 0.078125 0.687500
vt 0.078125 0.125000
vt 0.015625 0.687500
vt 0.687500 0.125000
vt 0.687500 0.687500
vt 0.750000 0.687500
vt 0.750000 0.125000
vt 0.453125 0.687500
vt 0.453125 0.125000
vt 0.437500 0.125000
vt 1.250000 0.562500
vt 1.234375 0.687500
vt 1.250000 0.687500
vt 1.250000 0.125000
vt 0.500000 0.125000
vt 0.937500 0.125000
vt -0.140625 0.125000
vt 0.296875 0.687500
vt 0.296875 0.125000
vt -0.140625 0.687500
vt 0.125000 0.687500
vt 0.109375 0.562500
vt 0.109375 0.687500
vt 0.109375 0.125000
vt 0.921875 0.562500
vt 0.906250 0.687500
vt 0.921875 0.687500
vt 0.906250 0.562500
vt 0.921875 0.125000
vt 0.906250 0.125000
vt 0.437500 0.131836
vt -0.687500 0.125000
vt 1.609375 0.125000
vt -0.312500 0.687500
vt -0.890625 0.125000
vt -0.890625 0.562500
vt -0.875000 0.687500
vt -0.890625 0.687500
vt 1.078125 1.187500
vt 1.015625 1.062500
vt 1.015625 1.156250
vt 1.078125 0.687500
vt 0.390625 1.062500
vt 1.015625 1.187500
vt 1.015625 0.687500
vt 0.390625 1.156250
vt 0.328125 0.687500
vt 0.328125 1.187500
vt 0.390625 0.687500
vt 0.390625 1.187500
vt -9.001953 -0.236816
vt -9.000000 0.312500
vt -9.007813 -0.166016
vt -9.000000 -0.312500
vt -9.017578 -0.100098
vt 10.500000 1.312500
vt 10.937500 1.187500
vt 10.937500 1.312500
vt 10.500000 0.687500
vt -9.031250 -0.039063
vt -9.048828 0.017090
vt -9.070313 0.068359
vt -9.095703 0.114746
vt -9.125000 0.156250
vt -9.158203 0.192871
vt -9.195313 0.224609
vt 10.937500 0.687500
vt -9.236328 0.251465
vt -9.281250 0.273438
vt -9.330078 0.290527
vt -9.382813 0.302734
vt -9.439453 0.310059
vt -9.500000 0.312500
vt 1.000000 1.312500
vt 0.439453 1.310059
vt 0.000000 1.312500
vt 0.382813 1.302734
vt 0.330078 1.290527
vt 0.281250 1.273438
vt 0.236328 1.251465
vt 0.195313 1.224609
vt 0.158203 1.192871
vt 0.125000 1.156250
vt 0.095703 1.114746
vt 0.070313 1.068359
vt 0.048828 1.017090
vt 0.031250 0.960938
vt 0.017578 0.899902
vt 0.007813 0.833984
vt 0.001953 0.763184
vt 0.000000 0.687500
vt 1.047363 1.000000
vt 0.970703 0.984375
vt 1.047363 0.984375
vt 0.970703 1.000000
vt 1.125000 0.984375
vt 1.125000 1.000000
vt 0.895020 1.000000
vt 0.895020 0.984375
vt 0.820313 0.984375
vt 0.820313 1.000000
vt 0.746582 1.000000
vt 0.746582 0.984375
vt 0.673828 0.984375
vt 0.673828 1.000000
vt 0.602051 1.000000
vt 0.602051 0.984375
vt 0.531250 0.984375
vt 0.531250 1.000000
vt 0.461426 1.000000
vt 0.461426 0.984375
vt 1.000000 0.077637
vt -0.171875 0.154297
vt -0.171875 0.077637
vt 1.000000 0.154297
vt -0.171875 0.000000
vt 1.000000 0.000000
vt 1.000000 0.229980
vt -0.171875 0.229980
vt -0.171875 0.304688
vt 1.000000 0.304688
vt 1.000000 0.378418
vt -0.171875 0.378418
vt -0.171876 0.451172
vt 1.000000 0.451172
vt 1.000000 0.522949
vt -0.171876 0.522949
vt -0.171876 0.593750
vt 1.000000 0.593750
vt 1.000000 0.663574
vt -0.171877 0.663574
vt 0.664062 0.077637
vt -0.117188 0.154297
vt -0.117188 0.077637
vt 0.664062 0.154297
vt -0.117188 0.000000
vt 0.664062 0.000000
vt 0.664062 0.229980
vt -0.117188 0.229980
vt -0.117188 0.304688
vt 0.664062 0.304688
vt 0.664062 0.378418
vt -0.117188 0.378418
vt -0.117188 0.451172
vt 0.664062 0.451172
vt 0.664062 0.522949
vt -0.117188 0.522949
vt -0.117188 0.593750
vt 0.664062 0.593750
vt 0.664062 0.663574
vt -0.117189 0.663574
vt 0.937500 1.015625
vt 0.375000 1.078125
vt 0.937500 1.078125
vt 0.375000 0.328125
vt 0.937500 0.390625
vt 0.937500 0.328125
vt 0.000460 0.668456
vt 0.882813 0.608686
vt 0.882813 0.668456
vt 0.000460 0.608686
vt 0.392578 1.000000
vt 0.324707 1.000000
vt 0.392578 0.984375
vt 0.324707 0.984375
vt 0.257813 0.984375
vt 0.257813 1.000000
vt 0.191895 1.000000
vt 0.191895 0.984375
vt 0.126953 0.984375
vt 0.126953 1.000000
vt 0.062988 1.000000
vt 0.062988 0.984375
vt 0.000000 0.984375
vt 1.000000 -0.267578
vt 1.000000 -0.199707
vt -0.171877 -0.267578
vt -0.171877 -0.199707
vt 1.000000 -0.336426
vt -0.171877 -0.336426
vt -0.171878 -0.132813
vt 1.000000 -0.132813
vt 1.000000 -0.066895
vt -0.171878 -0.066895
vt -0.171879 -0.001953
vt 1.000000 -0.001953
vt 1.000000 0.062012
vt -0.171879 0.062012
vt -0.171880 0.125000
vt 1.000000 0.125000
vt 0.820312 1.125000
vt 0.070313 1.125000
vt 0.820312 1.062012
vt 0.070313 1.062012
vt 0.070313 0.998047
vt 0.820312 0.998047
vt 0.820312 0.933105
vt 0.070313 0.933105
vt 0.070313 0.867188
vt 0.820312 0.867188
vt 0.820312 0.800293
vt 0.070313 0.800293
vt 0.070312 0.732422
vt 0.820312 0.732422
vt 0.820312 0.663574
vt 0.070312 0.663574
vt 0.070312 0.125000
vt -0.507810 0.125000
vt 0.070312 0.062012
vt -0.507810 0.062012
vt -0.507811 -0.001953
vt 0.070312 -0.001953
vt 0.070312 -0.066895
vt -0.507811 -0.066895
vt -0.507811 -0.132813
vt 0.070312 -0.132813
vt 0.070312 -0.199707
vt -0.507812 -0.199707
vt -0.507812 -0.267578
vt 0.070312 -0.267578
vt 0.070312 -0.336426
vt -0.507812 -0.336426
vt 1.000460 1.065600
vt 1.882813 1.138212
vt 1.000460 1.138212
vt 1.882813 1.065600
vt 1.882813 0.994823
vt 1.000460 0.994823
vt 1.000460 0.925880
vt 1.882813 0.925880
vt 1.882813 0.858772
vt 1.000460 0.858772
vt 1.000460 0.793499
vt 1.882813 0.793499
vt 1.882813 0.730060
vt 1.000460 0.730060
vt 1.000460 0.668456
vt 1.882813 0.668456
vt 0.664062 1.125000
vt -0.117190 1.125000
vt 0.664062 1.062012
vt -0.117190 1.062012
vt -0.117189 0.998047
vt 0.664062 0.998047
vt 0.664062 0.933105
vt -0.117189 0.933105
vt -0.117189 0.867188
vt 0.664062 0.867188
vt 0.664062 0.800293
vt -0.117189 0.800293
vt -0.117189 0.732422
vt 0.664062 0.732422
vt 0.820312 1.593750
vt 0.070312 1.593750
vt 0.820312 1.522949
vt 0.820312 1.663574
vt 0.070312 1.522949
vt 0.070312 1.663574
vt 0.070312 0.593750
vt -0.507812 0.593750
vt 0.070312 0.522949
vt -0.507812 0.663574
vt -0.507813 0.522949
vt -0.507813 0.451172
vt 0.070312 0.451172
vt 0.070312 0.378418
vt -0.507813 0.378418
vt -0.507813 0.304688
vt 0.070312 0.304688
vt 0.070312 0.229980
vt -0.507813 0.229980
vt -0.507813 0.154297
vt 0.070312 0.154297
vt 0.070312 0.077637
vt -0.507813 0.077637
vt -0.507813 0.000000
vt 0.070312 0.000000
vt 0.070312 1.451172
vt 0.820312 1.451172
vt 0.820312 1.378418
vt 0.070312 1.378418
vt 0.070312 1.304688
vt 0.820312 1.304688
vt 0.820312 1.229980
vt 0.070312 1.229980
vt 0.070312 1.154297
vt 0.820312 1.154297
vt 0.820312 1.077637
vt 0.070312 1.077637
vt 0.070312 1.000000
vt 0.820312 1.000000
vt 0.000000 0.000000
s 1
usemtl textures/venice_ase_c1/er_white
f 2/1/1 3/2/1 5/3/1
f 1/4/1 3/2/1 2/1/1
f 1/4/1 4/5/1 3/2/1
f 3/2/1 6/6/1 5/3/1
f 3/2/1 4/5/1 8/7/1
f 5/3/1 6/6/1 7/8/1
f 6/6/1 9/9/1 7/8/1
f 7/8/1 9/9/1 10/10/1
f 11/6/2 13/11/2 12/12/2
f 14/9/2 13/11/2 11/6/2
f 14/9/2 15/13/2 13/11/2
f 16/14/3 18/15/3 17/16/3
f 16/14/3 17/16/3 19/17/3
f 20/11/4 22/6/4 21/12/4
f 23/13/4 22/6/4 20/11/4
f 23/13/4 24/9/4 22/6/4
f 26/18/4 28/19/4 29/20/4
f 26/18/4 27/21/4 28/19/4
f 26/18/4 29/20/4 32/22/4
f 25/23/4 27/21/4 26/18/4
f 29/20/4 31/24/4 30/25/4
f 29/20/4 30/25/4 32/22/4
f 30/25/4 31/24/4 33/26/4
f 30/25/4 33/26/4 36/27/4
f 33/26/4 34/28/4 36/27/4
f 33/26/4 35/29/4 34/28/4
f 34/28/4 35/29/4 37/30/4
f 34/28/4 37/30/4 40/31/4
f 37/30/4 38/32/4 40/31/4
f 37/30/4 39/33/4 38/32/4
f 38/32/4 39/33/4 41/34/4
f 38/32/4 41/34/4 44/35/4
f 41/34/4 42/36/4 44/35/4
f 41/34/4 43/37/4 42/36/4
f 42/36/4 43/37/4 45/38/4
f 42/36/4 45/38/4 46/39/4
f 45/38/4 47/40/4 46/39/4
f 45/38/4 48/41/4 47/40/4
f 47/40/4 48/41/4 49/42/4
f 47/40/4 49/42/4 50/43/4
f 49/42/4 51/44/4 50/43/4
f 49/42/4 52/45/4 51/44/4
f 51/44/4 52/45/4 53/46/4
f 51/44/4 53/46/4 54/47/4
f 53/46/4 55/48/4 54/47/4
f 53/46/4 56/49/4 55/48/4
f 55/48/4 56/49/4 57/50/4
f 55/48/4 57/50/4 60/51/4
f 57/50/4 58/48/4 60/51/4
f 57/50/4 59/49/4 58/48/4
f 58/48/4 59/49/4 61/46/4
f 58/48/4 61/46/4 62/47/4
f 61/46/4 63/44/4 62/47/4
f 61/46/4 64/45/4 63/44/4
f 63/44/4 64/45/4 65/42/4
f 63/44/4 65/42/4 66/43/4
f 65/42/4 67/40/4 66/43/4
f 65/42/4 68/41/4 67/40/4
f 67/40/4 68/41/4 69/38/4
f 67/40/4 69/38/4 70/39/4
f 69/38/4 71/36/4 70/39/4
f 69/38/4 72/37/4 71/36/4
f 71/36/4 72/37/4 73/34/4
f 71/36/4 73/34/4 74/35/4
f 73/34/4 75/32/4 74/35/4
f 73/34/4 76/33/4 75/32/4
f 75/32/4 76/33/4 77/30/4
f 75/32/4 77/30/4 78/31/4
f 77/30/4 79/28/4 78/31/4
f 77/30/4 80/29/4 79/28/4
f 79/28/4 80/29/4 81/26/4
f 79/28/4 81/26/4 82/27/4
f 81/26/4 83/25/4 82/27/4
f 81/26/4 84/24/4 83/25/4
f 83/25/4 84/24/4 85/20/4
f 83/25/4 85/20/4 86/22/4
f 85/20/4 87/18/4 86/22/4
f 85/20/4 88/19/4 87/18/4
f 87/18/4 88/19/4 89/21/4
f 87/18/4 89/21/4 90/23/4
f 91/52/4 93/53/4 92/54/4
f 91/52/4 94/55/4 93/53/4
f 95/56/5 97/57/5 96/58/5
f 95/56/5 96/58/5 98/59/5
f 99/60/1 101/61/1 100/53/1
f 99/60/1 100/53/1 102/54/1
f 103/10/2 105/9/2 104/62/2
f 103/10/2 104/62/2 106/63/2
f 107/64/4 109/65/4 108/66/4
f 107/64/4 108/66/4 110/67/4
f 111/18/2 115/20/2 114/19/2
f 111/18/2 118/22/2 115/20/2
f 111/18/2 114/19/2 113/21/2
f 115/20/2 118/22/2 117/25/2
f 111/18/2 113/21/2 112/23/2
f 115/20/2 117/25/2 116/24/2
f 116/24/2 117/25/2 119/26/2
f 117/25/2 122/27/2 119/26/2
f 119/26/2 122/27/2 121/28/2
f 119/26/2 121/28/2 120/29/2
f 120/29/2 121/28/2 123/30/2
f 121/28/2 126/31/2 123/30/2
f 123/30/2 126/31/2 125/32/2
f 123/30/2 125/32/2 124/33/2
f 124/33/2 125/32/2 127/34/2
f 125/32/2 130/35/2 127/34/2
f 127/34/2 130/35/2 129/36/2
f 127/34/2 129/36/2 128/37/2
f 128/37/2 129/36/2 131/38/2
f 129/36/2 133/39/2 131/38/2
f 131/38/2 133/39/2 132/40/2
f 131/38/2 132/40/2 134/41/2
f 132/40/2 135/42/2 134/41/2
f 132/40/2 137/43/2 135/42/2
f 135/42/2 137/43/2 136/44/2
f 135/42/2 136/44/2 138/45/2
f 136/44/2 139/46/2 138/45/2
f 136/44/2 141/47/2 139/46/2
f 139/46/2 141/47/2 140/48/2
f 139/46/2 140/48/2 142/49/2
f 140/48/2 143/50/2 142/49/2
f 140/48/2 146/51/2 143/50/2
f 143/50/2 146/51/2 145/48/2
f 143/50/2 145/48/2 144/49/2
f 144/49/2 145/48/2 147/46/2
f 145/48/2 148/47/2 147/46/2
f 147/46/2 148/47/2 149/44/2
f 147/46/2 149/44/2 150/45/2
f 149/44/2 151/42/2 150/45/2
f 149/44/2 152/43/2 151/42/2
f 151/42/2 152/43/2 153/40/2
f 151/42/2 153/40/2 154/41/2
f 153/40/2 155/38/2 154/41/2
f 153/40/2 156/39/2 155/38/2
f 155/38/2 156/39/2 157/36/2
f 155/38/2 157/36/2 158/37/2
f 157/36/2 159/34/2 158/37/2
f 157/36/2 160/35/2 159/34/2
f 159/34/2 160/35/2 161/32/2
f 159/34/2 161/32/2 162/33/2
f 161/32/2 163/30/2 162/33/2
f 161/32/2 164/31/2 163/30/2
f 163/30/2 164/31/2 165/28/2
f 163/30/2 165/28/2 166/29/2
f 165/28/2 167/26/2 166/29/2
f 165/28/2 168/27/2 167/26/2
f 167/26/2 168/27/2 169/25/2
f 167/26/2 169/25/2 170/24/2
f 169/25/2 171/20/2 170/24/2
f 169/25/2 172/22/2 171/20/2
f 171/20/2 172/22/2 173/18/2
f 171/20/2 173/18/2 174/19/2
f 173/18/2 175/21/2 174/19/2
f 173/18/2 176/23/2 175/21/2
f 177/68/5 179/69/5 178/70/5
f 177/68/5 180/71/5 179/69/5
f 181/54/1 183/61/1 182/60/1
f 181/54/1 184/53/1 183/61/1
f 185/72/2 187/73/2 186/74/2
f 185/72/2 188/75/2 187/73/2
f 189/76/2 191/77/2 190/78/2
f 190/78/2 191/77/2 194/79/2
f 189/76/2 190/78/2 192/80/2
f 190/78/2 193/81/2 192/80/2
f 191/77/2 195/82/2 194/79/2
f 191/77/2 198/83/2 195/82/2
f 195/82/2 198/83/2 197/84/2
f 195/82/2 197/84/2 196/85/2
f 196/85/2 197/84/2 199/86/2
f 197/84/2 202/87/2 199/86/2
f 199/86/2 202/87/2 201/88/2
f 199/86/2 201/88/2 200/89/2
f 200/89/2 201/88/2 203/90/2
f 201/88/2 206/91/2 203/90/2
f 203/90/2 206/91/2 205/92/2
f 203/90/2 205/92/2 204/93/2
f 204/93/2 205/92/2 207/94/2
f 205/92/2 210/95/2 207/94/2
f 207/94/2 210/95/2 209/96/2
f 207/94/2 209/96/2 208/97/2
f 208/97/2 209/96/2 211/98/2
f 209/96/2 212/99/2 211/98/2
f 211/98/2 212/99/2 213/100/2
f 211/98/2 213/100/2 214/101/2
f 213/100/2 215/102/2 214/101/2
f 213/100/2 216/103/2 215/102/2
f 215/102/2 216/103/2 217/104/2
f 215/102/2 217/104/2 218/105/2
f 217/104/2 219/106/2 218/105/2
f 217/104/2 220/107/2 219/106/2
f 219/106/2 220/107/2 221/108/2
f 219/106/2 221/108/2 222/109/2
f 221/108/2 223/106/2 222/109/2
f 221/108/2 224/107/2 223/106/2
f 223/106/2 224/107/2 225/104/2
f 223/106/2 225/104/2 226/105/2
f 225/104/2 227/102/2 226/105/2
f 225/104/2 228/103/2 227/102/2
f 227/102/2 228/103/2 229/100/2
f 227/102/2 229/100/2 230/101/2
f 229/100/2 231/98/2 230/101/2
f 229/100/2 232/99/2 231/98/2
f 231/98/2 232/99/2 233/96/2
f 231/98/2 233/96/2 234/97/2
f 233/96/2 235/94/2 234/97/2
f 233/96/2 236/95/2 235/94/2
f 235/94/2 236/95/2 237/92/2
f 235/94/2 237/92/2 238/93/2
f 237/92/2 239/90/2 238/93/2
f 237/92/2 240/91/2 239/90/2
f 239/90/2 240/91/2 241/88/2
f 239/90/2 241/88/2 242/89/2
f 241/88/2 243/86/2 242/89/2
f 241/88/2 244/87/2 243/86/2
f 243/86/2 244/87/2 245/84/2
f 243/86/2 245/84/2 246/85/2
f 245/84/2 247/82/2 246/85/2
f 245/84/2 248/83/2 247/82/2
f 247/82/2 248/83/2 249/77/2
f 247/82/2 249/77/2 250/79/2
f 249/77/2 251/78/2 250/79/2
f 249/77/2 252/76/2 251/78/2
f 251/78/2 252/76/2 253/80/2
f 251/78/2 253/80/2 254/81/2
f 257/110/6 259/111/7 258/112/6
f 257/110/6 260/113/7 259/111/7
f 256/114/1 257/110/6 258/112/6
f 255/115/1 257/110/6 256/114/1
f 259/111/7 260/113/7 261/116/8
f 259/111/7 261/116/8 262/117/9
f 261/116/8 263/118/10 262/117/9
f 261/116/8 266/119/10 263/118/10
f 263/118/10 266/119/10 265/120/11
f 263/118/10 265/120/11 264/121/12
f 264/121/12 265/120/11 267/122/13
f 265/120/11 268/123/14 267/122/13
f 267/122/13 268/123/14 269/124/15
f 267/122/13 269/124/15 272/125/15
f 269/124/15 271/126/16 272/125/15
f 269/124/15 270/127/16 271/126/16
f 270/127/16 273/128/17 271/126/16
f 271/126/16 273/128/17 274/129/17
f 275/78/4 277/77/4 276/76/4
f 275/78/4 279/79/4 277/77/4
f 275/78/4 276/76/4 278/80/4
f 277/77/4 279/79/4 280/82/4
f 275/78/4 278/80/4 283/81/4
f 280/82/4 281/85/4 282/84/4
f 280/82/4 282/84/4 284/83/4
f 277/77/4 280/82/4 284/83/4
f 281/85/4 285/86/4 282/84/4
f 282/84/4 285/86/4 288/87/4
f 285/86/4 287/88/4 288/87/4
f 285/86/4 286/89/4 287/88/4
f 286/89/4 289/90/4 287/88/4
f 287/88/4 289/90/4 292/91/4
f 289/90/4 291/92/4 292/91/4
f 289/90/4 290/93/4 291/92/4
f 290/93/4 293/94/4 291/92/4
f 291/92/4 293/94/4 296/95/4
f 293/94/4 295/96/4 296/95/4
f 293/94/4 294/97/4 295/96/4
f 294/97/4 297/98/4 295/96/4
f 295/96/4 297/98/4 298/99/4
f 297/98/4 299/100/4 298/99/4
f 297/98/4 300/101/4 299/100/4
f 299/100/4 300/101/4 301/102/4
f 299/100/4 301/102/4 302/103/4
f 301/102/4 303/104/4 302/103/4
f 301/102/4 304/105/4 303/104/4
f 303/104/4 304/105/4 305/106/4
f 303/104/4 305/106/4 306/107/4
f 305/106/4 307/108/4 306/107/4
f 305/106/4 308/109/4 307/108/4
f 307/108/4 308/109/4 309/106/4
f 307/108/4 309/106/4 310/107/4
f 309/106/4 311/104/4 310/107/4
f 309/106/4 312/105/4 311/104/4
f 311/104/4 312/105/4 313/102/4
f 311/104/4 313/102/4 314/103/4
f 313/102/4 315/100/4 314/103/4
f 313/102/4 316/101/4 315/100/4
f 315/100/4 316/101/4 317/98/4
f 315/100/4 317/98/4 318/99/4
f 317/98/4 319/96/4 318/99/4
f 317/98/4 320/97/4 319/96/4
f 319/96/4 320/97/4 321/94/4
f 319/96/4 321/94/4 322/95/4
f 321/94/4 323/92/4 322/95/4
f 321/94/4 324/93/4 323/92/4
f 323/92/4 324/93/4 325/90/4
f 323/92/4 325/90/4 326/91/4
f 325/90/4 327/88/4 326/91/4
f 325/90/4 328/89/4 327/88/4
f 327/88/4 328/89/4 329/86/4
f 327/88/4 329/86/4 330/87/4
f 329/86/4 331/84/4 330/87/4
f 329/86/4 332/85/4 331/84/4
f 331/84/4 332/85/4 333/82/4
f 331/84/4 333/82/4 334/83/4
f 333/82/4 335/77/4 334/83/4
f 333/82/4 336/79/4 335/77/4
f 335/77/4 336/79/4 337/78/4
f 335/77/4 337/78/4 338/76/4
f 337/78/4 339/80/4 338/76/4
f 337/78/4 340/81/4 339/80/4
f 343/110/6 345/111/7 344/112/6
f 343/110/6 346/113/7 345/111/7
f 342/114/1 343/110/6 344/112/6
f 341/115/1 343/110/6 342/114/1
f 345/111/7 346/113/7 347/116/8
f 345/111/7 347/116/8 348/117/9
f 347/116/8 349/118/10 348/117/9
f 347/116/8 350/119/10 349/118/10
f 349/118/10 350/119/10 351/120/11
f 349/118/10 351/120/11 352/121/12
f 351/120/11 353/122/13 352/121/12
f 351/120/11 354/123/14 353/122/13
f 353/122/13 354/123/14 355/124/15
f 353/122/13 355/124/15 356/125/15
f 355/124/15 357/126/16 356/125/15
f 355/124/15 358/127/16 357/126/16
f 357/126/16 358/127/16 359/128/17
f 357/126/16 359/128/17 360/129/17
f 361/130/4 363/131/4 362/53/4
f 361/130/4 364/132/4 363/131/4
f 365/133/5 367/58/5 366/134/5
f 365/133/5 368/57/5 367/58/5
f 369/135/5 368/57/5 365/133/5
f 369/135/5 370/136/5 368/57/5
f 371/58/3 373/133/3 372/134/3
f 371/58/3 374/135/3 373/133/3
f 375/57/3 374/135/3 371/58/3
f 375/57/3 376/136/3 374/135/3
f 377/55/2 379/137/2 378/138/2
f 377/55/2 380/62/2 379/137/2
f 381/139/1 383/140/1 382/137/1
f 381/139/1 382/137/1 384/62/1
f 385/141/4 387/142/4 386/66/4
f 385/141/4 388/143/4 387/142/4
f 389/144/5 391/69/5 390/145/5
f 389/144/5 392/71/5 391/69/5
f 393/146/5 392/71/5 389/144/5
f 393/146/5 394/147/5 392/71/5
f 395/69/3 397/144/3 396/145/3
f 395/69/3 398/146/3 397/144/3
f 399/71/3 398/146/3 395/69/3
f 399/71/3 400/147/3 398/146/3
f 401/65/2 403/73/2 402/148/2
f 401/65/2 402/148/2 404/149/2
f 405/62/1 407/140/1 406/139/1
f 405/62/1 408/137/1 407/140/1
f 411/150/18 412/151/18 413/152/19
f 411/150/18 413/152/19 414/153/19
f 409/128/20 412/151/18 411/150/18
f 409/128/20 411/150/18 410/129/20
f 413/152/19 415/154/21 414/153/19
f 413/152/19 416/155/21 415/154/21
f 415/154/21 416/155/21 417/156/22
f 415/154/21 417/156/22 418/157/22
f 417/156/22 419/158/23 418/157/22
f 417/156/22 420/159/23 419/158/23
f 419/158/23 420/159/23 421/160/24
f 419/158/23 421/160/24 422/161/24
f 421/160/24 423/162/3 422/161/24
f 421/160/24 424/108/3 423/162/3
f 425/108/3 427/162/3 426/160/25
f 426/160/25 427/162/3 428/161/25
f 426/160/25 428/161/25 429/158/26
f 426/160/25 429/158/26 430/159/26
f 429/158/26 431/156/27 430/159/26
f 429/158/26 432/157/27 431/156/27
f 431/156/27 432/157/27 433/154/28
f 431/156/27 433/154/28 434/155/28
f 433/154/28 435/152/29 434/155/28
f 433/154/28 438/153/29 435/152/29
f 435/152/29 438/153/29 437/150/30
f 435/152/29 437/150/30 436/151/30
f 436/151/30 437/150/30 439/128/31
f 437/150/30 440/129/31 439/128/31
f 443/150/18 444/151/18 445/152/19
f 443/150/18 445/152/19 446/153/19
f 441/128/20 444/151/18 443/150/18
f 441/128/20 443/150/18 442/129/20
f 445/152/19 447/154/21 446/153/19
f 445/152/19 448/155/21 447/154/21
f 447/154/21 448/155/21 449/156/22
f 447/154/21 449/156/22 450/157/22
f 449/156/22 451/158/23 450/157/22
f 449/156/22 452/159/23 451/158/23
f 451/158/23 452/159/23 453/160/24
f 451/158/23 453/160/24 454/161/24
f 453/160/24 455/162/3 454/161/24
f 453/160/24 456/108/3 455/162/3
f 457/108/3 459/162/3 458/160/25
f 458/160/25 459/162/3 462/161/25
f 458/160/25 462/161/25 461/158/26
f 458/160/25 461/158/26 460/159/26
f 460/159/26 461/158/26 463/156/27
f 461/158/26 466/157/27 463/156/27
f 463/156/27 466/157/27 465/154/28
f 463/156/27 465/154/28 464/155/28
f 464/155/28 465/154/28 467/152/29
f 465/154/28 468/153/29 467/152/29
f 467/152/29 468/153/29 469/150/30
f 467/152/29 469/150/30 470/151/30
f 469/150/30 471/128/31 470/151/30
f 469/150/30 472/129/31 471/128/31
f 473/126/32 477/124/33 476/127/32
f 473/126/32 476/127/32 475/128/34
f 473/126/32 480/125/33 477/124/33
f 473/126/32 475/128/34 474/129/34
f 477/124/33 479/122/35 478/123/36
f 477/124/33 480/125/33 479/122/35
f 478/123/36 479/122/35 481/120/37
f 479/122/35 482/121/38 481/120/37
f 481/120/37 482/121/38 483/118/39
f 481/120/37 483/118/39 484/119/39
f 483/118/39 485/116/40 484/119/39
f 483/118/39 487/117/41 485/116/40
f 485/116/40 487/117/41 486/111/42
f 485/116/40 486/111/42 488/113/42
f 486/111/42 489/110/43 488/113/42
f 486/111/42 491/112/43 489/110/43
f 489/110/43 491/112/43 490/114/44
f 489/110/43 490/114/44 492/115/44
f 493/126/32 497/124/33 496/127/32
f 493/126/32 498/125/33 497/124/33
f 493/126/32 496/127/32 495/128/34
f 493/126/32 495/128/34 494/129/34
f 497/124/33 498/125/33 499/122/35
f 497/124/33 499/122/35 502/123/36
f 499/122/35 500/120/37 502/123/36
f 499/122/35 501/121/38 500/120/37
f 500/120/37 501/121/38 503/118/39
f 500/120/37 503/118/39 506/119/39
f 503/118/39 504/116/40 506/119/39
f 503/118/39 505/117/41 504/116/40
f 504/116/40 505/117/41 507/111/42
f 504/116/40 507/111/42 510/113/42
f 507/111/42 508/110/43 510/113/42
f 507/111/42 509/112/43 508/110/43
f 508/110/43 509/112/43 511/114/44
f 508/110/43 511/114/44 512/115/44
f 513/139/44 515/137/44 514/140/44
f 513/139/44 516/62/44 515/137/44
f 517/62/44 519/140/44 518/137/44
f 517/62/44 520/139/44 519/140/44
f 521/60/44 523/54/44 522/53/44
f 521/60/44 522/53/44 524/61/44
f 525/54/44 527/61/44 526/53/44
f 525/54/44 528/60/44 527/61/44
f 529/163/4 531/164/4 530/165/4
f 530/165/4 531/164/4 532/53/4
f 532/53/4 531/164/4 533/166/4
f 534/54/4 531/164/4 529/163/4
f 533/166/4 531/164/4 534/54/4
f 535/53/4 537/131/4 536/167/4
f 535/53/4 536/167/4 538/168/4
f 539/58/5 541/169/5 540/134/5
f 539/58/5 542/170/5 541/169/5
f 543/57/5 542/170/5 539/58/5
f 543/57/5 544/136/5 542/170/5
f 545/169/3 547/58/3 546/134/3
f 545/169/3 548/57/3 547/58/3
f 549/170/3 548/57/3 545/169/3
f 549/170/3 550/136/3 548/57/3
f 551/57/5 553/171/5 552/58/5
f 551/57/5 554/172/5 553/171/5
f 555/9/2 557/168/2 556/62/2
f 555/9/2 558/13/2 557/168/2
f 559/62/2 561/173/2 560/137/2
f 559/62/2 562/174/2 561/173/2
f 563/66/4 565/142/4 564/175/4
f 563/66/4 564/175/4 566/176/4
f 567/69/5 569/177/5 568/145/5
f 567/69/5 570/178/5 569/177/5
f 571/71/5 570/178/5 567/69/5
f 571/71/5 572/147/5 570/178/5
f 573/177/3 575/69/3 574/145/3
f 573/177/3 576/71/3 575/69/3
f 577/178/3 576/71/3 573/177/3
f 577/178/3 578/147/3 576/71/3
f 579/67/4 581/179/4 580/180/4
f 579/67/4 582/66/4 581/179/4
f 583/71/5 585/181/5 584/182/5
f 583/71/5 584/182/5 586/69/5
f 587/75/2 589/183/2 588/176/2
f 587/75/2 588/176/2 590/73/2
f 591/73/2 593/184/2 592/148/2
f 591/73/2 594/185/2 593/184/2
usemtl textures/venice_ase_c1/tobruk_wall_base3_inv
f 595/186/1 597/187/1 596/188/1
f 595/186/1 598/189/1 597/187/1
f 599/190/1 601/191/1 600/192/1
f 599/190/1 600/192/1 602/193/1
f 603/8/1 605/56/1 604/194/1
f 603/8/1 606/138/1 605/56/1
f 607/195/1 606/138/1 603/8/1
f 607/195/1 608/196/1 606/138/1
f 609/197/1 611/198/1 610/199/1
f 609/197/1 612/187/1 611/198/1
f 613/200/1 612/187/1 609/197/1
f 613/200/1 614/188/1 612/187/1
f 615/201/2 617/202/2 616/21/2
f 615/201/2 616/21/2 618/57/2
f 619/203/4 621/204/4 620/205/4
f 619/203/4 622/206/4 621/204/4
f 623/207/1 625/208/1 624/209/1
f 623/207/1 626/210/1 625/208/1
f 627/191/1 626/210/1 623/207/1
f 627/191/1 628/190/1 626/210/1
f 629/211/1 631/212/1 630/213/1
f 629/211/1 632/214/1 631/212/1
f 633/215/1 632/214/1 629/211/1
f 633/215/1 634/216/1 632/214/1
f 635/138/44 637/8/44 636/194/44
f 635/138/44 636/194/44 638/56/44
f 639/217/44 637/8/44 635/138/44
f 639/217/44 640/195/44 637/8/44
f 641/198/44 644/187/44 643/197/44
f 641/198/44 643/197/44 642/199/44
f 643/197/44 644/187/44 645/200/44
f 646/218/44 648/219/44 647/56/44
f 646/218/44 647/56/44 649/220/44
f 646/218/44 649/220/44 650/221/44
f 649/220/44 651/222/44 650/221/44
f 649/220/44 652/223/44 651/222/44
f 651/222/44 652/223/44 653/224/44
f 654/214/44 656/211/44 655/213/44
f 654/214/44 655/213/44 657/212/44
f 658/216/44 656/211/44 654/214/44
f 658/216/44 659/215/44 656/211/44
usemtl textures/venice_ase_c1/tobruk_wall_base7
f 660/225/1 663/226/1 662/227/1
f 660/225/1 664/228/1 663/226/1
f 662/227/1 663/226/1 666/229/1
f 660/225/1 662/227/1 661/230/1
f 663/226/1 664/228/1 665/231/1
f 662/227/1 666/229/1 667/232/1
f 666/229/1 668/233/1 667/232/1
f 667/232/1 668/233/1 669/234/1
f 666/229/1 670/235/1 668/233/1
f 667/232/1 669/234/1 671/236/1
f 676/237/2 677/238/2 679/239/2
f 676/237/2 678/240/2 677/238/2
f 677/238/2 680/241/2 679/239/2
f 672/242/2 674/243/2 673/244/2
f 672/242/2 675/245/2 674/243/2
f 677/238/2 681/246/2 680/241/2
f 677/238/2 682/247/2 681/246/2
f 677/238/2 683/248/2 682/247/2
f 677/238/2 684/249/2 683/248/2
f 677/238/2 685/250/2 684/249/2
f 677/238/2 686/251/2 685/250/2
f 677/238/2 687/252/2 686/251/2
f 674/243/2 675/245/2 694/253/2
f 677/238/2 688/254/2 687/252/2
f 677/238/2 689/255/2 688/254/2
f 677/238/2 690/256/2 689/255/2
f 677/238/2 691/257/2 690/256/2
f 677/238/2 692/258/2 691/257/2
f 677/238/2 693/259/2 692/258/2
f 695/243/4 698/253/4 697/242/4
f 695/243/4 697/242/4 696/244/4
f 697/242/4 698/253/4 699/245/4
f 700/238/4 702/240/4 701/237/4
f 700/238/4 701/237/4 703/239/4
f 700/238/4 703/239/4 704/241/4
f 700/238/4 704/241/4 705/246/4
f 700/238/4 705/246/4 706/247/4
f 700/238/4 706/247/4 707/248/4
f 700/238/4 707/248/4 708/249/4
f 700/238/4 708/249/4 709/250/4
f 700/238/4 709/250/4 710/251/4
f 700/238/4 710/251/4 711/252/4
f 700/238/4 711/252/4 712/254/4
f 700/238/4 712/254/4 713/255/4
f 700/238/4 713/255/4 714/256/4
f 700/238/4 714/256/4 715/257/4
f 700/238/4 715/257/4 716/258/4
f 700/238/4 716/258/4 717/259/4
f 718/260/4 719/18/4 721/22/4
f 718/260/4 721/22/4 722/25/4
f 718/260/4 722/25/4 723/27/4
f 718/260/4 723/27/4 724/28/4
f 718/260/4 720/23/4 719/18/4
f 718/260/4 724/28/4 725/31/4
f 718/260/4 725/31/4 726/32/4
f 718/260/4 726/32/4 727/35/4
f 718/260/4 727/35/4 728/36/4
f 718/260/4 728/36/4 729/39/4
f 718/260/4 729/39/4 730/40/4
f 718/260/4 730/40/4 731/43/4
f 718/260/4 731/43/4 732/44/4
f 718/260/4 732/44/4 733/47/4
f 718/260/4 733/47/4 734/48/4
f 718/260/4 734/48/4 735/51/4
f 735/51/4 737/261/4 736/262/4
f 736/262/4 737/261/4 738/263/4
f 736/262/4 738/263/4 739/264/4
f 736/262/4 739/264/4 740/265/4
f 736/262/4 740/265/4 741/266/4
f 736/262/4 741/266/4 742/267/4
f 736/262/4 742/267/4 743/268/4
f 736/262/4 743/268/4 744/269/4
f 736/262/4 744/269/4 745/270/4
f 736/262/4 745/270/4 746/271/4
f 736/262/4 746/271/4 747/272/4
f 736/262/4 747/272/4 748/273/4
f 736/262/4 748/273/4 749/274/4
f 736/262/4 749/274/4 750/275/4
f 736/262/4 750/275/4 751/276/4
f 736/262/4 751/276/4 752/277/4
f 755/278/6 757/279/7 756/280/6
f 755/278/6 758/281/7 757/279/7
f 754/282/1 755/278/6 756/280/6
f 753/283/1 755/278/6 754/282/1
f 757/279/7 758/281/7 759/284/9
f 757/279/7 759/284/9 760/285/9
f 759/284/9 761/286/10 760/285/9
f 759/284/9 762/287/45 761/286/10
f 761/286/10 762/287/45 763/288/12
f 761/286/10 763/288/12 764/289/12
f 763/288/12 765/290/13 764/289/12
f 763/288/12 766/291/13 765/290/13
f 765/290/13 766/291/13 767/292/46
f 765/290/13 767/292/46 768/293/15
f 767/292/46 769/294/16 768/293/15
f 767/292/46 770/295/16 769/294/16
f 769/294/16 770/295/16 771/296/20
f 769/294/16 771/296/20 772/297/20
f 775/298/6 777/299/7 776/300/6
f 775/298/6 778/301/7 777/299/7
f 774/302/1 775/298/6 776/300/6
f 773/303/1 775/298/6 774/302/1
f 777/299/7 778/301/7 779/304/8
f 777/299/7 779/304/8 780/305/9
f 779/304/8 781/306/10 780/305/9
f 779/304/8 782/307/45 781/306/10
f 781/306/10 782/307/45 783/308/12
f 781/306/10 783/308/12 784/309/12
f 783/308/12 785/310/13 784/309/12
f 783/308/12 786/311/13 785/310/13
f 785/310/13 786/311/13 787/312/46
f 785/310/13 787/312/46 788/313/15
f 787/312/46 789/314/16 788/313/15
f 787/312/46 790/315/16 789/314/16
f 789/314/16 790/315/16 791/316/20
f 789/314/16 791/316/20 792/317/20
f 795/318/6 797/319/7 796/320/6
f 795/318/6 798/321/7 797/319/7
f 794/322/1 795/318/6 796/320/6
f 793/323/1 795/318/6 794/322/1
f 797/319/7 798/321/7 799/324/8
f 797/319/7 799/324/8 802/325/9
f 799/324/8 801/326/10 802/325/9
f 799/324/8 800/327/45 801/326/10
f 800/327/45 803/328/12 801/326/10
f 801/326/10 803/328/12 804/329/12
f 803/328/12 805/330/13 804/329/12
f 803/328/12 806/331/13 805/330/13
f 805/330/13 806/331/13 807/332/47
f 805/330/13 807/332/47 808/333/15
f 807/332/47 809/334/48 808/333/15
f 807/332/47 810/335/16 809/334/48
f 809/334/48 810/335/16 811/336/20
f 809/334/48 811/336/20 812/337/20
f 813/18/2 814/260/2 816/22/2
f 814/260/2 817/25/2 816/22/2
f 814/260/2 818/27/2 817/25/2
f 813/18/2 815/23/2 814/260/2
f 814/260/2 819/28/2 818/27/2
f 814/260/2 820/31/2 819/28/2
f 814/260/2 821/32/2 820/31/2
f 814/260/2 822/35/2 821/32/2
f 814/260/2 823/36/2 822/35/2
f 814/260/2 824/39/2 823/36/2
f 814/260/2 825/40/2 824/39/2
f 814/260/2 826/43/2 825/40/2
f 814/260/2 827/44/2 826/43/2
f 814/260/2 828/47/2 827/44/2
f 814/260/2 829/48/2 828/47/2
f 814/260/2 830/51/2 829/48/2
f 830/51/2 832/262/2 831/261/2
f 831/261/2 832/262/2 833/263/2
f 832/262/2 834/264/2 833/263/2
f 832/262/2 835/265/2 834/264/2
f 832/262/2 836/266/2 835/265/2
f 832/262/2 837/267/2 836/266/2
f 832/262/2 838/268/2 837/267/2
f 832/262/2 839/269/2 838/268/2
f 832/262/2 840/270/2 839/269/2
f 832/262/2 841/271/2 840/270/2
f 832/262/2 842/272/2 841/271/2
f 832/262/2 843/273/2 842/272/2
f 832/262/2 844/274/2 843/273/2
f 832/262/2 845/275/2 844/274/2
f 832/262/2 846/276/2 845/275/2
f 832/262/2 847/277/2 846/276/2
f 850/278/6 852/279/7 851/280/6
f 850/278/6 855/281/7 852/279/7
f 849/282/1 850/278/6 851/280/6
f 848/283/1 850/278/6 849/282/1
f 852/279/7 855/281/7 854/284/9
f 852/279/7 854/284/9 853/285/9
f 853/285/9 854/284/9 856/286/10
f 854/284/9 859/287/45 856/286/10
f 856/286/10 859/287/45 858/288/12
f 856/286/10 858/288/12 857/289/12
f 857/289/12 858/288/12 860/290/13
f 858/288/12 863/291/13 860/290/13
f 860/290/13 863/291/13 862/292/46
f 860/290/13 862/292/46 861/293/15
f 861/293/15 862/292/46 864/294/16
f 862/292/46 865/295/16 864/294/16
f 864/294/16 865/295/16 866/296/20
f 864/294/16 866/296/20 867/297/20
f 868/338/3 870/339/3 869/340/3
f 868/338/3 871/341/3 870/339/3
f 872/342/3 871/341/3 868/338/3
f 872/342/3 873/343/3 871/341/3
f 874/344/49 876/345/50 875/346/49
f 877/347/50 876/345/50 874/344/49
f 878/348/18 882/349/19 880/350/18
f 880/350/18 882/349/19 883/351/19
f 878/348/18 880/350/18 879/296/20
f 879/296/20 880/350/18 881/297/20
f 882/349/19 884/352/21 883/351/19
f 882/349/19 885/353/21 884/352/21
f 884/352/21 885/353/21 886/354/22
f 884/352/21 886/354/22 887/355/22
f 886/354/22 888/356/23 887/355/22
f 886/354/22 889/357/23 888/356/23
f 888/356/23 889/357/23 890/358/24
f 888/356/23 890/358/24 891/359/24
f 890/358/24 892/360/3 891/359/24
f 890/358/24 896/108/3 892/360/3
f 893/108/3 895/360/3 894/358/25
f 894/358/25 895/360/3 897/359/25
f 894/358/25 897/359/25 898/356/26
f 894/358/25 898/356/26 899/357/26
f 898/356/26 900/354/27 899/357/26
f 898/356/26 902/355/27 900/354/27
f 900/354/27 902/355/27 901/352/28
f 900/354/27 901/352/28 903/353/28
f 901/352/28 904/349/29 903/353/28
f 901/352/28 905/351/29 904/349/29
f 904/349/29 905/351/29 906/350/30
f 904/349/29 906/350/30 907/348/30
f 906/350/30 908/296/31 907/348/30
f 906/350/30 909/297/31 908/296/31
f 910/361/18 914/362/19 912/363/18
f 912/363/18 914/362/19 915/364/19
f 910/361/18 912/363/18 911/365/20
f 911/365/20 912/363/18 913/366/20
f 914/362/19 916/367/21 915/364/19
f 914/362/19 917/368/21 916/367/21
f 916/367/21 917/368/21 918/369/22
f 916/367/21 918/369/22 919/370/22
f 918/369/22 920/371/23 919/370/22
f 918/369/22 921/372/23 920/371/23
f 920/371/23 921/372/23 922/373/24
f 920/371/23 922/373/24 925/374/24
f 922/373/24 924/375/3 925/374/24
f 922/373/24 923/376/3 924/375/3
f 926/376/3 928/375/3 927/373/25
f 927/373/25 928/375/3 929/374/25
f 927/373/25 929/374/25 937/371/26
f 927/373/25 937/371/26 961/372/26
f 937/371/26 962/369/27 961/372/26
f 937/371/26 963/370/27 962/369/27
f 962/369/27 963/370/27 965/367/28
f 962/369/27 965/367/28 969/368/28
f 965/367/28 967/362/29 969/368/28
f 965/367/28 968/364/29 967/362/29
f 967/362/29 968/364/29 971/363/30
f 967/362/29 971/363/30 979/361/30
f 971/363/30 980/365/31 979/361/30
f 971/363/30 981/366/31 980/365/31
f 930/377/3 932/378/3 931/379/25
f 931/379/25 932/378/3 933/380/25
f 931/379/25 933/380/25 938/381/26
f 931/379/25 938/381/26 939/382/26
f 938/381/26 943/383/27 939/382/26
f 938/381/26 946/384/27 943/383/27
f 943/383/27 946/384/27 945/385/28
f 943/383/27 945/385/28 966/386/28
f 945/385/28 952/387/29 966/386/28
f 945/385/28 951/388/29 952/387/29
f 950/389/30 952/387/29 951/388/29
f 950/389/30 972/390/30 952/387/29
f 950/389/30 975/391/31 972/390/30
f 950/389/30 982/392/31 975/391/31
f 934/393/3 936/394/3 935/395/25
f 935/395/25 936/394/3 941/396/25
f 935/395/25 941/396/25 940/397/26
f 935/395/25 940/397/26 942/398/26
f 940/397/26 944/399/27 942/398/26
f 940/397/26 964/400/27 944/399/27
f 944/399/27 964/400/27 948/401/28
f 944/399/27 948/401/28 947/402/28
f 947/402/28 948/401/28 949/403/29
f 948/401/28 970/404/29 949/403/29
f 949/403/29 970/404/29 974/405/30
f 949/403/29 974/405/30 973/406/30
f 973/406/30 974/405/30 976/407/31
f 974/405/30 983/408/31 976/407/31
f 953/409/51 955/410/3 954/411/3
f 953/409/51 956/412/51 955/410/3
f 953/409/51 977/413/52 956/412/51
f 953/409/51 984/414/52 977/413/52
f 977/413/52 984/414/52 986/415/53
f 977/413/52 986/415/53 991/416/53
f 986/415/53 994/417/54 991/416/53
f 986/415/53 996/418/54 994/417/54
f 994/417/54 996/418/54 998/419/55
f 994/417/54 998/419/55 999/420/55
f 998/419/55 1001/421/56 999/420/55
f 998/419/55 1002/422/56 1001/421/56
f 1001/421/56 1002/422/56 1003/423/57
f 1001/421/56 1003/423/57 1004/424/57
f 957/425/3 959/426/3 958/427/24
f 958/427/24 959/426/3 960/428/24
f 958/427/24 960/428/24 978/429/23
f 958/427/24 978/429/23 985/430/23
f 978/429/23 987/431/22 985/430/23
f 978/429/23 988/432/22 987/431/22
f 987/431/22 988/432/22 989/433/21
f 987/431/22 989/433/21 990/434/21
f 989/433/21 992/435/19 990/434/21
f 989/433/21 993/436/19 992/435/19
f 992/435/19 993/436/19 995/437/18
f 992/435/19 995/437/18 997/438/18
f 995/437/18 1000/336/20 997/438/18
f 995/437/18 1005/337/20 1000/336/20
f 1008/350/18 1009/348/18 1010/349/19
f 1008/350/18 1010/349/19 1011/351/19
f 1006/296/20 1009/348/18 1008/350/18
f 1006/296/20 1008/350/18 1007/297/20
f 1010/349/19 1012/352/21 1011/351/19
f 1010/349/19 1013/353/21 1012/352/21
f 1012/352/21 1013/353/21 1014/354/22
f 1012/352/21 1014/354/22 1015/355/22
f 1014/354/22 1016/356/23 1015/355/22
f 1014/354/22 1017/357/23 1016/356/23
f 1016/356/23 1017/357/23 1018/358/24
f 1016/356/23 1018/358/24 1019/359/24
f 1018/358/24 1020/360/3 1019/359/24
f 1018/358/24 1024/108/3 1020/360/3
f 1021/108/3 1023/360/3 1022/358/25
f 1022/358/25 1023/360/3 1025/359/25
f 1022/358/25 1025/359/25 1026/356/26
f 1022/358/25 1026/356/26 1027/357/26
f 1026/356/26 1028/354/27 1027/357/26
f 1026/356/26 1029/355/27 1028/354/27
f 1028/354/27 1029/355/27 1030/352/28
f 1028/354/27 1030/352/28 1031/353/28
f 1030/352/28 1032/349/29 1031/353/28
f 1030/352/28 1034/351/29 1032/349/29
f 1032/349/29 1034/351/29 1033/350/30
f 1032/349/29 1033/350/30 1035/348/30
f 1033/350/30 1036/296/31 1035/348/30
f 1033/350/30 1037/297/31 1036/296/31
f 1038/294/32 1042/292/58 1041/295/32
f 1038/294/32 1043/293/33 1042/292/58
f 1038/294/32 1041/295/32 1040/296/31
f 1038/294/32 1040/296/31 1039/297/31
f 1042/292/58 1043/293/33 1044/290/35
f 1042/292/58 1044/290/35 1047/291/35
f 1044/290/35 1045/288/38 1047/291/35
f 1044/290/35 1046/289/38 1045/288/38
f 1045/288/38 1046/289/38 1048/286/39
f 1045/288/38 1048/286/39 1049/287/59
f 1048/286/39 1050/284/41 1049/287/59
f 1048/286/39 1051/285/41 1050/284/41
f 1050/284/41 1051/285/41 1052/279/42
f 1050/284/41 1052/279/42 1055/281/42
f 1052/279/42 1053/278/43 1055/281/42
f 1052/279/42 1054/280/43 1053/278/43
f 1053/278/43 1054/280/43 1056/282/44
f 1053/278/43 1056/282/44 1057/283/44
f 1058/315/32 1060/316/31 1059/314/32
f 1059/314/32 1060/316/31 1061/317/31
f 1058/315/32 1059/314/32 1065/312/58
f 1062/439/32 1063/440/32 1066/441/33
f 1062/439/32 1064/442/31 1063/440/32
f 1063/440/32 1067/443/33 1066/441/33
f 1063/440/32 1064/442/31 1114/444/31
f 1059/314/32 1072/313/33 1065/312/58
f 1065/312/58 1072/313/33 1071/310/35
f 1065/312/58 1071/310/35 1073/311/35
f 1071/310/35 1079/308/38 1073/311/35
f 1071/310/35 1084/309/38 1079/308/38
f 1079/308/38 1084/309/38 1083/306/39
f 1079/308/38 1083/306/39 1085/307/59
f 1083/306/39 1091/304/40 1085/307/59
f 1083/306/39 1096/305/41 1091/304/40
f 1091/304/40 1096/305/41 1095/299/42
f 1091/304/40 1095/299/42 1097/301/42
f 1095/299/42 1103/298/43 1097/301/42
f 1095/299/42 1104/300/43 1103/298/43
f 1103/298/43 1104/300/43 1109/302/44
f 1103/298/43 1109/302/44 1117/303/44
f 1068/445/32 1070/446/60 1069/447/61
f 1068/445/32 1115/392/31 1070/446/60
f 1070/446/60 1115/392/31 1116/448/31
f 1069/447/61 1070/446/60 1077/449/33
f 1069/447/61 1077/449/33 1076/450/35
f 1069/447/61 1076/450/35 1078/451/35
f 1076/450/35 1081/452/38 1078/451/35
f 1076/450/35 1082/453/38 1081/452/38
f 1081/452/38 1082/453/38 1089/454/39
f 1081/452/38 1089/454/39 1090/455/59
f 1089/454/39 1093/456/40 1090/455/59
f 1089/454/39 1094/457/41 1093/456/40
f 1093/456/40 1094/457/41 1101/458/42
f 1093/456/40 1101/458/42 1102/459/42
f 1101/458/42 1107/460/43 1102/459/42
f 1101/458/42 1108/461/43 1107/460/43
f 1107/460/43 1108/461/43 1113/462/44
f 1107/460/43 1113/462/44 1112/463/44
f 1066/441/33 1075/464/35 1074/465/35
f 1066/441/33 1067/443/33 1075/464/35
f 1074/465/35 1075/464/35 1080/466/38
f 1075/464/35 1087/467/38 1080/466/38
f 1080/466/38 1087/467/38 1086/468/39
f 1080/466/38 1086/468/39 1088/469/59
f 1086/468/39 1092/470/40 1088/469/59
f 1086/468/39 1099/471/41 1092/470/40
f 1092/470/40 1099/471/41 1098/472/42
f 1092/470/40 1098/472/42 1100/473/42
f 1098/472/42 1105/474/43 1100/473/42
f 1098/472/42 1106/475/43 1105/474/43
f 1105/474/43 1106/475/43 1111/476/44
f 1105/474/43 1111/476/44 1110/477/44
f 1118/295/32 1119/294/32 1122/292/58
f 1119/294/32 1123/293/33 1122/292/58
f 1118/295/32 1120/296/31 1119/294/32
f 1119/294/32 1120/296/31 1121/297/31
f 1122/292/58 1123/293/33 1124/290/35
f 1122/292/58 1124/290/35 1125/291/35
f 1124/290/35 1126/288/38 1125/291/35
f 1124/290/35 1127/289/38 1126/288/38
f 1126/288/38 1127/289/38 1128/286/39
f 1126/288/38 1128/286/39 1129/287/59
f 1128/286/39 1130/284/41 1129/287/59
f 1128/286/39 1132/285/41 1130/284/41
f 1130/284/41 1132/285/41 1131/279/42
f 1130/284/41 1131/279/42 1133/281/42
f 1131/279/42 1134/278/43 1133/281/42
f 1131/279/42 1136/280/43 1134/278/43
f 1134/278/43 1136/280/43 1135/282/44
f 1134/278/43 1135/282/44 1137/283/44
usemtl textures/venice_ase_c1/door_c17
f 1138/303/1 1140/115/1 1139/108/1
f 1138/303/1 1139/108/1 1141/478/1
