# Blender 4.5.3 LTS
# www.blender.org
mtllib piano.mtl
o venice
v -17.999977 20.999994 102.000000
v -21.999981 4.999994 98.000000
v -22.999981 20.999994 102.000023
v -18.999977 4.999994 98.000015
v -18.999977 -0.000006 98.000015
v -21.999981 4.999994 98.000000
v -18.999977 4.999994 98.000015
v -21.999981 -0.000006 98.000000
v -21.999981 -0.000006 98.000000
v -21.999981 4.999994 93.000015
v -21.999981 4.999994 98.000000
v -21.999981 -0.000006 93.000015
v -18.999977 -0.000006 98.000015
v -18.999977 4.999994 98.000015
v -18.999977 4.999994 93.000031
v -18.999977 -0.000006 93.000031
v -18.999977 -0.000006 93.000031
v -18.999977 4.999994 93.000031
v -21.999981 4.999994 93.000015
v -21.999981 -0.000006 93.000015
v -18.999977 4.999994 93.000031
v -23.000004 20.999994 91.000015
v -21.999981 4.999994 93.000015
v -17.999996 20.999994 90.999985
v -74.999962 21.000000 26.000036
v -78.999969 5.000002 22.000032
v -80.999992 21.000000 26.000015
v -75.999962 5.000002 22.000051
v -75.999962 0.000002 22.000051
v -78.999969 5.000002 22.000032
v -75.999962 5.000002 22.000051
v -78.999969 0.000002 22.000032
v -78.999969 0.000002 22.000032
v -78.999969 5.000002 17.000048
v -78.999969 5.000002 22.000032
v -78.999969 0.000002 17.000048
v -75.999962 0.000002 22.000051
v -75.999939 5.000002 17.000046
v -75.999939 0.000002 17.000046
v -75.999962 5.000002 22.000051
v -75.999939 0.000002 17.000046
v -75.999939 5.000002 17.000046
v -78.999969 5.000002 17.000048
v -78.999969 0.000002 17.000048
v -75.999939 5.000002 17.000046
v -81.000015 21.000002 15.000004
v -78.999969 5.000002 17.000048
v -74.999992 21.000002 15.000029
v -0.999953 20.999996 26.000050
v -6.000004 4.999998 22.000023
v -6.999981 20.999996 26.000029
v -2.999978 4.999996 22.000023
v -2.999978 -0.000004 22.000023
v -6.000004 -0.000002 22.000023
v -6.000004 4.999998 22.000023
v -2.999978 4.999996 22.000023
v -6.000004 -0.000002 22.000023
v -5.999982 4.999998 17.000019
v -6.000004 4.999998 22.000023
v -5.999982 -0.000002 17.000019
v -2.999978 -0.000004 22.000023
v -2.999978 4.999996 22.000023
v -2.999979 4.999998 17.000038
v -2.999979 -0.000002 17.000038
v -2.999979 -0.000002 17.000038
v -2.999979 4.999998 17.000038
v -5.999982 4.999998 17.000019
v -5.999982 -0.000002 17.000019
v -2.999979 4.999998 17.000038
v -7.000005 20.999998 15.000017
v -5.999982 4.999998 17.000019
v -0.999977 20.999996 15.000037
v -32.999943 24.999994 113.000061
v -45.999985 24.999994 104.000031
v -45.999985 44.999992 104.000031
v -32.999943 44.999992 113.000061
v -30.999962 57.374996 113.000031
v -41.999931 61.999996 104.000076
v -41.999931 64.625000 104.000076
v -30.999962 59.999996 113.000031
v -17.999973 24.999992 110.000000
v -23.999939 20.999994 107.000076
v -23.999916 24.999994 110.000076
v -17.999996 20.999992 107.000000
v -45.999985 24.999994 104.000031
v -56.999977 24.999998 68.000038
v -56.999977 45.000000 68.000038
v -45.999985 44.999992 104.000031
v -17.999973 24.999992 110.000000
v -17.999977 20.999994 102.000000
v -17.999996 20.999992 107.000000
v -17.999958 24.999994 79.000015
v -17.999996 20.999994 90.999985
v -17.999996 20.999994 86.000000
v -17.999977 20.999994 102.000000
v -23.999939 20.999994 107.000076
v -17.999996 20.999992 107.000000
v -17.999996 20.999994 90.999985
v -23.999941 20.999994 86.000069
v -17.999996 20.999994 86.000000
v -41.999931 61.999996 104.000076
v -51.999969 68.750000 68.000015
v -41.999931 64.625000 104.000076
v -51.999969 66.250000 68.000015
v -56.999977 24.999998 68.000038
v -64.999969 24.999998 55.000023
v -64.999969 45.000000 55.000023
v -56.999977 45.000000 68.000038
v -64.999969 24.999998 55.000023
v -80.999962 45.000000 45.000034
v -64.999969 45.000000 55.000023
v -80.999962 25.000000 45.000034
v -1.999958 44.999992 113.000031
v -30.999962 57.374996 113.000031
v -30.999962 59.999996 113.000031
v 0.000023 44.999992 113.000008
v 0.000023 46.999992 113.000008
v 0.000023 24.999992 113.000008
v -32.999943 24.999994 113.000061
v -1.999958 44.999992 113.000031
v -32.999943 44.999992 113.000061
v 0.000023 44.999992 113.000008
v -22.999981 20.999994 102.000023
v -21.999981 4.999994 98.000000
v -21.999981 4.999994 93.000015
v -23.000004 20.999994 91.000015
v -1.999958 44.999992 113.000031
v -41.999931 61.999996 104.000076
v -30.999962 57.374996 113.000031
v -1.999973 44.999996 35.375042
v -1.999950 44.999996 33.375061
v -51.999969 66.250000 68.000015
v -1.999994 44.999996 32.750000
v -59.999981 69.625000 55.000023
v -74.999939 76.000000 32.000069
v -1.999952 44.999996 32.000038
v -74.999931 76.000000 45.000061
v -51.999969 66.250000 68.000015
v -59.999981 69.625000 55.000023
v -59.999981 72.125000 55.000023
v -51.999969 68.750000 68.000015
v -59.999981 69.625000 55.000023
v -73.999931 78.000000 45.625057
v -59.999981 72.125000 55.000023
v -74.999931 76.000000 45.000061
v -80.999985 25.000000 34.000023
v -80.999962 45.000000 45.000034
v -80.999962 25.000000 45.000034
v -80.999954 25.000002 9.000065
v -80.999992 21.000000 31.000000
v -80.999992 21.000000 26.000015
v -80.999985 25.000002 3.000038
v -81.000015 21.000002 15.000004
v -80.999992 21.000002 9.999996
v -80.999985 45.000000 42.000031
v -80.999977 34.000000 6.000065
v -81.000000 34.000004 0.000038
v -81.000000 25.000002 0.000038
v -80.999954 34.000000 9.000065
v -80.999954 38.000000 9.000065
v -80.999985 45.000000 39.000008
v -80.999954 45.000000 9.000065
v -64.999969 24.999998 55.000023
v -80.999985 25.000000 34.000023
v -80.999962 25.000000 45.000034
v 0.000023 24.999998 9.000052
v -75.000015 25.000002 9.000000
v -80.999985 25.000002 3.000038
v -0.000000 24.999998 -0.000000
v -81.000000 25.000002 0.000038
v -56.999977 24.999998 68.000038
v -45.999985 24.999994 104.000031
v 0.000023 24.999992 113.000008
v -32.999943 24.999994 113.000061
v 0.000023 46.999992 113.000008
v -30.999962 59.999996 113.000031
v -41.999931 64.625000 104.000076
v 0.000028 46.999996 32.000011
v -51.999969 68.750000 68.000015
v -59.999981 72.125000 55.000023
v -74.000000 78.000000 32.000023
v -73.999931 78.000000 45.625057
v -17.999977 20.999994 102.000000
v -18.999977 4.999994 93.000031
v -18.999977 4.999994 98.000015
v -17.999996 20.999994 90.999985
v -23.999916 24.999994 110.000076
v -23.999939 20.999994 107.000076
v -23.999941 20.999994 86.000069
v -23.999983 24.999994 79.000000
v -74.999962 25.000000 34.000046
v -80.999992 21.000000 31.000000
v -80.999985 25.000000 34.000023
v -74.999985 21.000000 31.000038
v -80.999985 45.000000 42.000031
v -67.999992 73.000000 39.000008
v -67.999947 73.000000 41.250069
v -80.999985 45.000000 39.000008
v -73.999931 78.000000 45.625057
v -74.999931 76.000000 45.000061
v -74.999939 76.000000 32.000069
v -74.000000 78.000000 32.000023
v -80.999985 45.000000 42.000031
v -65.499977 72.000000 41.000031
v -78.999985 45.000000 41.875000
v -67.999924 73.000000 41.125061
v -74.999985 21.000000 31.000038
v -80.999992 21.000000 26.000015
v -80.999992 21.000000 31.000000
v -74.999962 21.000000 26.000036
v -81.000015 21.000002 15.000004
v -74.999992 21.000002 15.000029
v -80.999992 21.000002 9.999996
v -74.999985 21.000002 10.000046
v -78.999985 45.000000 41.875000
v -65.499977 72.000000 41.000031
v -65.499954 72.000000 39.000053
v -78.999924 45.000000 39.000072
v -65.499954 72.000000 39.000053
v -80.999985 45.000000 39.000008
v -78.999924 45.000000 39.000072
v -67.999992 73.000000 39.000008
v -17.999996 20.999994 86.000000
v -23.999983 24.999994 79.000000
v -23.999941 20.999994 86.000069
v -17.999958 24.999994 79.000015
v -74.999962 25.000000 34.000046
v -74.999962 21.000000 26.000036
v -74.999985 21.000000 31.000038
v -74.999954 25.000002 3.000057
v -74.999992 21.000002 15.000029
v -74.999985 21.000002 10.000046
v -80.999992 21.000000 26.000015
v -78.999969 5.000002 22.000032
v -78.999969 5.000002 17.000048
v -81.000015 21.000002 15.000004
v -74.999962 21.000000 26.000036
v -75.999939 5.000002 17.000046
v -75.999962 5.000002 22.000051
v -74.999992 21.000002 15.000029
v -74.999985 21.000002 10.000046
v -80.999985 25.000002 3.000038
v -80.999992 21.000002 9.999996
v -74.999954 25.000002 3.000057
v -47.999962 0.000000 15.000044
v -49.999962 25.000000 12.000065
v -49.999943 25.000000 15.000067
v -47.999985 0.000000 12.000040
v -36.999950 25.000000 15.000065
v -37.999973 0.000000 15.000020
v -47.999962 0.000000 15.000044
v -49.999943 25.000000 15.000067
v -36.999950 25.000000 15.000065
v -37.999996 0.000000 12.000017
v -37.999973 0.000000 15.000020
v -36.999973 25.000000 12.000062
v -36.999973 25.000000 12.000062
v -47.999985 0.000000 12.000040
v -37.999996 0.000000 12.000017
v -49.999962 25.000000 12.000065
v -25.000021 56.000000 22.000008
v -57.999969 56.000000 22.000034
v -58.000015 57.000000 21.000010
v -24.999956 57.000000 21.000051
v -0.999952 24.999996 34.000061
v -6.999982 20.999996 31.000011
v -6.999980 24.999996 34.000038
v -0.999952 20.999996 31.000034
v -6.999981 20.999996 26.000029
v -6.999980 24.999996 34.000038
v -6.999982 20.999996 31.000011
v -7.000005 20.999998 15.000017
v -6.999964 24.999998 3.000048
v -6.999985 20.999998 10.000012
v 0.000023 44.999992 113.000008
v 0.000028 46.999996 32.000011
v 0.000028 44.999996 32.000011
v 0.000023 46.999992 113.000008
v 0.000023 37.999996 9.000053
v 0.000024 45.000000 9.000053
v 0.000023 33.999996 9.000053
v 0.000023 24.999992 113.000008
v 0.000023 24.999998 9.000052
v 0.000023 34.000000 6.000029
v -0.000000 24.999998 -0.000000
v 0.000000 34.000000 0.000000
v -0.999952 20.999996 31.000034
v -6.999981 20.999996 26.000029
v -6.999982 20.999996 31.000011
v -0.999953 20.999996 26.000050
v -7.000005 20.999998 15.000017
v -0.999977 20.999996 15.000037
v -6.999985 20.999998 10.000012
v -0.999957 20.999998 10.000032
v 0.000028 46.999996 32.000011
v -74.000000 78.000000 32.000023
v -74.999939 76.000000 32.000069
v 0.000028 44.999996 32.000011
v -1.999952 44.999996 32.000038
v -0.999952 24.999996 34.000061
v -0.999953 20.999996 26.000050
v -0.999952 20.999996 31.000034
v -0.999936 24.999998 3.000068
v -0.999977 20.999996 15.000037
v -0.999957 20.999998 10.000032
v -6.999981 20.999996 26.000029
v -6.000004 4.999998 22.000023
v -5.999982 4.999998 17.000019
v -7.000005 20.999998 15.000017
v -0.999953 20.999996 26.000050
v -2.999979 4.999998 17.000038
v -2.999978 4.999996 22.000023
v -0.999977 20.999996 15.000037
v -0.999957 20.999998 10.000032
v -6.999964 24.999998 3.000048
v -6.999985 20.999998 10.000012
v -0.999936 24.999998 3.000068
v -0.000000 24.999998 -0.000000
v -81.000000 34.000004 0.000038
v -81.000000 25.000002 0.000038
v 0.000000 34.000000 0.000000
v -57.999969 56.000000 22.000034
v -57.999969 45.000000 17.000051
v -58.000015 57.000000 21.000010
v -57.999931 45.000000 18.000072
v -25.000021 56.000000 22.000008
v -57.999931 45.000000 18.000072
v -57.999969 56.000000 22.000034
v -24.999977 45.000000 18.000046
v -24.999956 57.000000 21.000051
v -58.000015 57.000000 21.000010
v -57.999969 45.000000 17.000051
v -25.000000 45.000000 17.000002
v -25.000021 56.000000 22.000008
v -25.000000 45.000000 17.000002
v -24.999977 45.000000 18.000046
v -24.999956 57.000000 21.000051
v 0.000023 37.999996 9.000053
v 0.000024 45.000000 9.000053
v -80.999954 45.000000 9.000065
v -80.999954 38.000000 9.000065
v 0.000023 37.999996 9.000053
v -80.999954 38.000000 9.000065
v -80.999977 34.000000 6.000065
v 0.000023 34.000000 6.000029
v -80.999985 45.000000 42.000031
v -64.999969 45.000000 55.000023
v -80.999962 45.000000 45.000034
v -80.999985 45.000000 39.000008
v 0.000024 45.000000 9.000053
v -80.999954 45.000000 9.000065
v -56.999977 45.000000 68.000038
v -45.999985 44.999992 104.000031
v -32.999943 44.999992 113.000061
v -1.999958 44.999992 113.000031
v 0.000028 44.999996 32.000011
v 0.000023 34.000000 6.000029
v -80.999977 34.000000 6.000065
v -81.000000 34.000004 0.000038
v 0.000000 34.000000 0.000000
vn -0.0000 -0.2425 0.9701
vn -0.0000 -0.0000 1.0000
vn -1.0000 -0.0000 -0.0000
vn 1.0000 -0.0000 -0.0000
vn -0.0000 -0.0000 -1.0000
vn -0.0000 -0.1240 -0.9923
vn -0.5692 -0.0000 0.8222
vn -0.6332 -0.0000 0.7740
vn -0.0000 -0.6000 0.8000
vn -0.9564 -0.0000 0.2922
vn -0.0000 -1.0000 -0.0000
vn -0.9635 -0.0000 0.2676
vn -0.8517 -0.0000 0.5241
vn -0.5300 -0.0000 0.8480
vn -0.9981 -0.0624 -0.0000
vn -0.3909 -0.9204 -0.0000
vn -0.3909 -0.9204 0.0001
vn -0.3911 -0.9203 -0.0000
vn -0.3908 -0.9205 -0.0001
vn -0.3907 -0.9205 0.0003
vn -0.3910 -0.9204 -0.0001
vn -0.3907 -0.9205 -0.0000
vn -0.5548 0.0001 0.8320
vn -0.5547 -0.0000 0.8321
vn -0.5547 -0.0000 0.8320
vn 0.3864 0.9223 -0.0000
vn 0.3863 0.9224 -0.0000
vn 0.3863 0.9224 -0.0002
vn 0.3864 0.9223 0.0002
vn 0.3863 0.9224 -0.0001
vn 0.3865 0.9223 -0.0000
vn 0.9981 -0.0624 -0.0000
vn -0.9070 0.4211 -0.0000
vn -0.8944 0.4472 -0.0000
vn 0.0623 -0.0000 0.9981
vn 0.0624 -0.0000 0.9981
vn 0.8944 -0.4472 -0.0000
vn -0.0000 -0.8682 -0.4961
vn -0.9923 -0.1240 -0.0000
vn -0.9968 -0.0797 -0.0000
vn 0.9992 -0.0400 -0.0000
vn -0.0000 0.7071 0.7071
vn 0.9923 -0.1240 -0.0000
vn -0.0000 -0.3417 0.9398
vn -0.0000 0.3162 -0.9487
vn -0.0000 0.6000 -0.8000
vn -0.0000 1.0000 -0.0000
vt 0.570313 0.312500
vt 0.648438 0.312500
vt 0.632813 0.062500
vt 0.585938 0.062500
vt 0.585938 -0.015625
vt 0.632813 -0.015625
vt 0.195313 -0.015625
vt 0.195313 0.062500
vt 0.273438 0.062500
vt 0.273438 -0.015625
vt 0.457031 0.312500
vt 0.550781 0.312500
vt 0.519531 0.062500
vt 0.472656 0.062500
vt 0.472656 -0.015625
vt 0.519531 -0.015625
vt 0.378906 -0.015625
vt 0.378906 0.062500
vt 0.457031 0.062500
vt 0.457031 -0.015625
vt 0.339844 0.312500
vt 0.433594 0.312500
vt 0.417969 0.062500
vt 0.371094 0.062500
vt 0.371094 -0.015625
vt 0.417969 -0.015625
vt 0.496094 0.062500
vt 0.496094 -0.015625
vt 0.921875 0.195313
vt 1.023438 0.351563
vt 1.023438 0.195313
vt 0.921875 0.351563
vt 0.448242 0.093750
vt 0.504883 0.007813
vt 0.484375 0.007813
vt 0.468750 0.093750
vt 0.804688 0.195313
vt 0.851563 0.195313
vt 0.851563 0.164063
vt 0.804688 0.164063
vt 0.570313 0.195313
vt 0.851563 0.351563
vt 0.570313 0.351563
vt 0.523438 0.195313
vt 0.546875 0.164063
vt 0.585938 0.164063
vt 0.765625 0.195313
vt 0.671875 0.164063
vt 0.710938 0.164063
vt 0.585938 0.804688
vt 0.546875 0.804688
vt 0.546875 0.851563
vt 0.671875 0.804688
vt 0.710938 0.851563
vt 0.710938 0.804688
vt 0.484375 0.429688
vt 0.504883 0.429688
vt 0.537109 0.148438
vt 0.517578 0.148438
vt 0.953125 0.351563
vt 0.953125 0.195313
vt 0.171875 0.195313
vt 0.171875 0.351563
vt 0.296875 0.351563
vt 0.296875 0.195313
vt 0.351563 0.320313
vt 0.351563 0.335938
vt 0.367188 0.335938
vt -0.335938 0.195313
vt -0.320313 0.351563
vt -0.078125 0.195313
vt -0.078125 0.351563
vt -0.335938 0.351563
vt 0.656250 0.039063
vt 0.617188 0.039063
vt 0.992188 0.429688
vt 1.070313 0.148438
vt 0.679688 -0.122070
vt 0.679688 -0.106445
vt 0.679688 0.500000
vt 0.906250 0.500000
vt 0.679688 -0.126953
vt 1.132813 0.046875
vt 1.250000 -0.132813
vt 1.250000 -0.031250
vt 0.679688 -0.132813
vt 0.563477 0.046875
vt 0.543945 0.046875
vt 0.543945 0.867188
vt 0.563477 0.867188
vt 0.609375 0.757813
vt 0.593750 0.750000
vt 0.117188 0.195313
vt 0.031250 0.351563
vt 0.312500 0.195313
vt 0.140625 0.164063
vt 0.179688 0.164063
vt 0.359375 0.195313
vt 0.031250 0.195313
vt 0.054688 0.351563
vt 0.335938 0.265625
vt 0.265625 0.164063
vt 0.312500 0.265625
vt 0.304688 0.164063
vt 0.382813 0.265625
vt 0.382813 0.195313
vt 0.312500 0.296875
vt 0.078125 0.351563
vt 0.312500 0.351563
vt 0.953125 1.171875
vt 1.117188 1.296875
vt 1.312500 0.664063
vt 1.312500 1.250000
vt 1.359375 1.296875
vt 1.382813 0.664063
vt 1.031250 1.296875
vt 0.851563 1.109375
vt 1.382813 1.296875
vt 0.570313 1.023438
vt 0.500000 0.664063
vt 0.500000 0.921875
vt 0.664063 0.500000
vt 0.664063 -0.132813
vt 1.242188 -0.132813
vt 1.242188 -0.026367
vt 0.257813 0.195313
vt 0.304688 0.195313
vt 0.257813 0.164063
vt 0.060547 0.570313
vt 0.078125 0.570313
vt 0.609375 0.973633
vt 0.593750 0.867188
vt 0.593750 0.968750
vt 0.609375 0.867188
vt 0.281250 0.351563
vt 0.175781 0.562500
vt 0.195313 0.570313
vt 0.179688 0.304688
vt 0.265625 0.304688
vt 0.179688 0.257813
vt 0.265625 0.257813
vt 0.140625 0.257813
vt 0.304688 0.304688
vt 0.140625 0.304688
vt 0.304688 0.257813
vt 0.055664 0.351563
vt 0.078125 0.562500
vt 0.062500 0.562500
vt 0.765625 0.851563
vt 0.765625 0.804688
vt 0.250000 0.039063
vt 0.210938 0.039063
vt 0.359375 0.304688
vt 0.359375 0.257813
vt 0.265625 0.000000
vt 0.265625 0.195313
vt 0.289063 0.195313
vt 0.289063 0.000000
vt -0.046875 0.195313
vt 0.039063 0.000000
vt -0.039063 0.000000
vt 0.054688 0.195313
vt 0.210938 0.859375
vt 0.218750 1.117188
vt 0.210938 1.117188
vt 0.218750 0.859375
vt 0.671875 0.195313
vt 0.718750 0.195313
vt 0.718750 0.164063
vt 0.500000 0.351563
vt 1.312500 0.296875
vt 1.132813 0.351563
vt 1.132813 0.367188
vt 1.312500 0.265625
vt 0.500000 0.367188
vt 1.312500 0.351563
vt 0.500000 0.195313
vt 1.335938 0.265625
vt 1.382813 0.195313
vt 1.382813 0.265625
vt 1.312500 0.195313
vt 0.179688 0.718750
vt 0.265625 0.718750
vt 0.179688 0.671875
vt 0.265625 0.671875
vt 0.140625 0.671875
vt 0.304688 0.718750
vt 0.140625 0.718750
vt 0.304688 0.671875
vt 0.593750 -0.250000
vt 0.609375 -0.242188
vt 0.359375 0.718750
vt 0.359375 0.671875
vt 0.664063 0.195313
vt 1.296875 0.195313
vt 1.296875 0.265625
vt 0.664063 0.265625
vt 0.843750 0.394531
vt 0.875000 0.363281
vt 1.000000 0.738281
vt 0.968750 0.738281
vt 0.437500 0.394531
vt 1.468750 0.394531
vt 1.468750 0.738281
vt 0.437500 0.738281
vt 0.437500 0.363281
vt 1.468750 0.363281
vt -0.343750 0.734375
vt 2.187500 0.953125
vt -0.343750 0.953125
vt 2.187500 0.734375
vt 2.187500 0.609375
vt -0.343750 0.609375
vt 0.772135 0.527344
vt 0.095052 0.167969
vt 0.938802 0.402344
vt 0.938802 0.425781
vt 0.688802 0.628906
vt 0.938802 0.167969
vt 0.938802 0.449219
vt 0.574219 0.910156
vt 0.438802 0.980469
vt 0.115885 0.980469
vt 0.095052 0.347656
vt 0.075521 0.105469
vt 0.919271 0.058594
vt 0.919271 0.105469
vt 0.075521 0.058594
s 1
usemtl textures/venice_ase_c1/piano_c06
f 1/1/1 3/2/1 2/3/1
f 1/1/1 2/3/1 4/4/1
f 5/5/2 7/4/2 6/3/2
f 5/5/2 6/3/2 8/6/2
f 9/7/3 11/8/3 10/9/3
f 9/7/3 10/9/3 12/10/3
f 13/7/4 15/9/4 14/8/4
f 13/7/4 16/10/4 15/9/4
f 17/5/5 19/3/5 18/4/5
f 17/5/5 20/6/5 19/3/5
f 21/4/6 23/3/6 22/2/6
f 21/4/6 22/2/6 24/1/6
f 25/11/1 27/12/1 26/13/1
f 25/11/1 26/13/1 28/14/1
f 29/15/2 31/14/2 30/13/2
f 29/15/2 30/13/2 32/16/2
f 33/17/3 35/18/3 34/19/3
f 33/17/3 34/19/3 36/20/3
f 37/17/4 39/20/4 38/19/4
f 37/17/4 38/19/4 40/18/4
f 41/15/5 43/13/5 42/14/5
f 41/15/5 44/16/5 43/13/5
f 45/14/6 47/13/6 46/12/6
f 45/14/6 46/12/6 48/11/6
f 49/21/1 51/22/1 50/23/1
f 49/21/1 50/23/1 52/24/1
f 53/25/2 55/23/2 54/26/2
f 53/25/2 56/24/2 55/23/2
f 57/26/3 59/23/3 58/27/3
f 57/26/3 58/27/3 60/28/3
f 61/26/4 63/27/4 62/23/4
f 61/26/4 64/28/4 63/27/4
f 65/25/5 67/23/5 66/24/5
f 65/25/5 68/26/5 67/23/5
f 69/24/6 71/23/6 70/22/6
f 69/24/6 70/22/6 72/21/6
usemtl textures/venice_ase_c1/piano_c05
f 73/29/7 75/30/7 74/31/7
f 73/29/7 76/32/7 75/30/7
f 77/33/8 79/34/8 78/35/8
f 77/33/8 80/36/8 79/34/8
f 81/37/9 83/38/9 82/39/9
f 81/37/9 82/39/9 84/40/9
f 85/41/10 87/42/10 86/38/10
f 85/41/10 88/43/10 87/42/10
f 89/44/4 91/45/4 90/46/4
f 89/44/4 90/46/4 92/47/4
f 92/47/4 90/46/4 93/48/4
f 92/47/4 93/48/4 94/49/4
f 95/50/11 97/51/11 96/52/11
f 95/50/11 96/52/11 98/53/11
f 98/53/11 96/52/11 99/54/11
f 98/53/11 99/54/11 100/55/11
f 101/56/12 103/57/12 102/58/12
f 101/56/12 102/58/12 104/59/12
f 105/38/13 107/60/13 106/61/13
f 105/38/13 108/42/13 107/60/13
f 109/62/14 111/63/14 110/64/14
f 109/62/14 110/64/14 112/65/14
f 113/66/2 116/67/2 115/36/2
f 113/66/2 115/36/2 114/33/2
f 115/36/2 116/67/2 117/68/2
f 118/69/2 120/70/2 119/71/2
f 119/71/2 120/70/2 121/72/2
f 118/69/2 122/73/2 120/70/2
f 123/46/15 125/74/15 124/75/15
f 123/46/15 126/48/15 125/74/15
f 128/76/16 132/77/17 131/78/18
f 128/76/16 131/78/18 130/79/18
f 127/80/19 128/76/16 130/79/18
f 127/80/19 129/81/16 128/76/16
f 131/78/18 132/77/17 133/82/17
f 132/77/17 134/83/20 133/82/17
f 133/82/17 134/83/20 135/84/21
f 134/83/20 137/85/22 135/84/21
f 133/82/17 135/84/21 136/86/16
f 138/59/13 140/87/13 139/88/13
f 138/59/13 141/58/13 140/87/13
f 142/89/23 144/90/24 143/91/24
f 142/89/23 143/91/24 145/92/25
f 146/93/3 147/94/3 149/95/3
f 146/93/3 149/95/3 150/96/3
f 149/95/3 151/97/3 150/96/3
f 149/95/3 152/98/3 151/97/3
f 146/93/3 148/99/3 147/94/3
f 147/94/3 155/100/3 149/95/3
f 149/95/3 156/101/3 152/98/3
f 151/97/3 152/98/3 153/102/3
f 149/95/3 155/100/3 159/103/3
f 149/95/3 159/103/3 156/101/3
f 152/98/3 154/104/3 153/102/3
f 152/98/3 156/101/3 157/105/3
f 152/98/3 157/105/3 158/106/3
f 156/101/3 159/103/3 160/107/3
f 159/103/3 161/108/3 160/107/3
f 155/100/3 161/108/3 159/103/3
f 160/107/3 161/108/3 162/109/3
f 163/110/11 164/111/11 166/112/11
f 164/111/11 167/113/11 166/112/11
f 166/112/11 167/113/11 168/114/11
f 166/112/11 168/114/11 169/115/11
f 163/110/11 165/116/11 164/111/11
f 163/110/11 166/112/11 171/117/11
f 168/114/11 170/118/11 169/115/11
f 166/112/11 172/119/11 171/117/11
f 166/112/11 173/120/11 172/119/11
f 172/119/11 173/120/11 174/121/11
f 175/122/26 178/123/27 177/76/28
f 177/76/28 178/123/27 179/77/27
f 178/123/27 180/83/29 179/77/27
f 178/123/27 181/124/30 180/83/29
f 175/122/26 177/76/28 176/81/26
f 180/83/29 181/124/30 182/125/31
f 183/46/32 185/75/32 184/74/32
f 183/46/32 184/74/32 186/48/32
f 187/44/3 189/49/3 188/45/3
f 187/44/3 190/47/3 189/49/3
f 191/126/9 193/127/9 192/104/9
f 191/126/9 192/104/9 194/128/9
f 195/100/33 197/129/33 196/130/33
f 195/100/33 196/130/33 198/108/33
f 199/131/34 201/132/34 200/133/34
f 199/131/34 202/134/34 201/132/34
f 203/64/35 205/135/36 204/136/36
f 203/64/35 204/136/36 206/137/36
f 208/138/11 211/139/11 210/140/11
f 210/140/11 211/139/11 212/141/11
f 207/142/11 208/138/11 210/140/11
f 211/139/11 213/143/11 212/141/11
f 207/142/11 209/144/11 208/138/11
f 212/141/11 213/143/11 214/145/11
f 215/146/37 217/147/37 216/148/37
f 215/146/37 218/108/37 217/147/37
f 219/136/5 221/135/5 220/64/5
f 219/136/5 220/64/5 222/137/5
f 223/55/38 225/54/38 224/149/38
f 223/55/38 224/149/38 226/150/38
f 227/93/4 229/96/4 228/97/4
f 227/93/4 228/97/4 230/98/4
f 230/98/4 228/97/4 231/102/4
f 230/98/4 231/102/4 232/104/4
f 233/97/39 235/151/39 234/152/39
f 233/97/39 236/102/39 235/151/39
f 237/97/32 239/152/32 238/151/32
f 237/97/32 238/151/32 240/102/32
f 241/145/38 243/143/38 242/153/38
f 241/145/38 242/153/38 244/154/38
f 245/155/40 247/156/40 246/157/40
f 245/155/40 246/157/40 248/158/40
f 249/159/2 251/160/2 250/161/2
f 249/159/2 252/162/2 251/160/2
f 253/156/41 255/155/41 254/158/41
f 253/156/41 254/158/41 256/157/41
f 257/159/5 259/161/5 258/160/5
f 257/159/5 258/160/5 260/162/5
f 261/163/42 263/164/42 262/165/42
f 261/163/42 264/166/42 263/164/42
f 265/167/9 267/168/9 266/169/9
f 265/167/9 266/169/9 268/48/9
f 269/97/3 271/96/3 270/93/3
f 269/97/3 270/93/3 272/102/3
f 272/102/3 270/93/3 273/98/3
f 272/102/3 273/98/3 274/104/3
f 275/170/4 279/171/4 277/172/4
f 275/170/4 277/172/4 276/173/4
f 275/170/4 281/174/4 279/171/4
f 275/170/4 276/173/4 278/175/4
f 277/172/4 279/171/4 280/176/4
f 275/170/4 282/177/4 281/174/4
f 279/171/4 281/174/4 284/178/4
f 281/174/4 285/179/4 284/178/4
f 284/178/4 285/179/4 286/180/4
f 281/174/4 283/181/4 285/179/4
f 281/174/4 282/177/4 283/181/4
f 288/182/11 291/183/11 290/184/11
f 290/184/11 291/183/11 292/185/11
f 287/186/11 288/182/11 290/184/11
f 291/183/11 293/187/11 292/185/11
f 287/186/11 289/188/11 288/182/11
f 292/185/11 293/187/11 294/189/11
f 295/68/5 297/190/5 296/191/5
f 298/67/5 297/190/5 295/68/5
f 298/67/5 299/66/5 297/190/5
f 300/93/4 302/96/4 301/97/4
f 300/93/4 301/97/4 303/98/4
f 303/98/4 301/97/4 304/102/4
f 303/98/4 304/102/4 305/104/4
f 306/97/15 308/151/15 307/152/15
f 306/97/15 309/102/15 308/151/15
f 310/97/43 312/152/43 311/151/43
f 310/97/43 311/151/43 313/102/43
f 314/189/38 316/187/38 315/192/38
f 314/189/38 315/192/38 317/193/38
f 318/194/5 320/195/5 319/196/5
f 318/194/5 319/196/5 321/197/5
usemtl textures/venice_ase_c1/piano_c04
f 322/198/3 324/199/3 323/200/3
f 322/198/3 323/200/3 325/201/3
f 326/202/44 328/203/44 327/204/44
f 326/202/44 327/204/44 329/205/44
f 330/206/45 332/204/45 331/207/45
f 330/206/45 333/205/45 332/204/45
f 334/198/4 336/201/4 335/200/4
f 334/198/4 335/200/4 337/199/4
f 338/208/5 340/209/5 339/210/5
f 338/208/5 341/211/5 340/209/5
f 342/208/46 344/212/46 343/211/46
f 342/208/46 345/213/46 344/212/46
usemtl textures/venice_ase_c1/piano_top
f 347/214/47 350/215/47 349/216/47
f 346/217/47 347/214/47 349/216/47
f 347/214/47 352/218/47 350/215/47
f 349/216/47 350/215/47 351/219/47
f 346/217/47 348/220/47 347/214/47
f 350/215/47 352/218/47 353/221/47
f 350/215/47 353/221/47 354/222/47
f 350/215/47 354/222/47 355/223/47
f 350/215/47 355/223/47 356/224/47
f 357/225/47 359/226/47 358/227/47
f 357/225/47 360/228/47 359/226/47
