# Blender 4.5.3 LTS
# www.blender.org
mtllib pole_wood.mtl
o venice
v -10.000000 0.000001 -4.000000
v -10.000000 232.000000 4.000018
v -10.000000 0.000000 4.000000
v -10.000000 232.000000 -3.999982
v -3.999999 -0.000000 10.000000
v -10.000000 0.000000 4.000000
v -10.000000 232.000000 4.000018
v -6.000000 250.000000 -3.999981
v -10.000000 232.000000 -3.999982
v -4.000000 250.000000 6.000019
v -3.999999 232.000000 10.000018
v -6.000000 250.000000 4.000019
v -4.000001 232.000000 -9.999983
v -4.000000 250.000000 -5.999982
v -4.000001 0.000001 -10.000001
v -10.000000 0.000001 -4.000000
v -4.000000 250.000000 6.000019
v -6.000000 250.000000 4.000019
v -4.000000 250.000000 4.000018
v -4.000000 250.000000 -3.999981
v -6.000000 250.000000 -3.999981
v -4.000000 250.000000 -5.999982
v 4.000000 250.000000 4.000018
v 4.000000 250.000000 -3.999982
v 4.000000 250.000000 -5.999982
v 6.000000 250.000000 -3.999982
v 4.000000 250.000000 6.000018
v 6.000000 250.000000 4.000017
v -4.000001 0.000001 -10.000001
v -10.000000 0.000001 -4.000000
v -10.000000 0.000000 4.000000
v -3.999999 -0.000000 10.000000
v 3.999999 0.000001 -10.000001
v 10.000000 0.000001 -4.000001
v 4.000001 -0.000000 10.000000
v 10.000000 0.000000 3.999998
v 4.000001 -0.000000 10.000000
v -3.999999 232.000000 10.000018
v 4.000001 232.000000 10.000017
v -3.999999 -0.000000 10.000000
v 4.000000 250.000000 6.000018
v -4.000000 250.000000 6.000019
v 3.999999 232.000000 -9.999984
v 4.000000 250.000000 -5.999982
v -4.000000 250.000000 -5.999982
v -4.000001 232.000000 -9.999983
v 3.999999 0.000001 -10.000001
v -4.000001 0.000001 -10.000001
v 10.000000 232.000000 4.000016
v 4.000001 232.000000 10.000017
v 4.000000 250.000000 6.000018
v 6.000000 250.000000 4.000017
v 10.000000 232.000000 -3.999984
v 6.000000 250.000000 -3.999982
v 10.000000 232.000000 -3.999984
v 6.000000 250.000000 -3.999982
v 4.000000 250.000000 -5.999982
v 3.999999 232.000000 -9.999984
v 10.000000 0.000001 -4.000001
v 3.999999 0.000001 -10.000001
v 10.000000 0.000000 3.999998
v 4.000001 232.000000 10.000017
v 10.000000 232.000000 4.000016
v 10.000000 0.000001 -4.000001
v 10.000000 0.000000 3.999998
v 4.000001 -0.000000 10.000000
vn -0.9186 0.1011 0.3819
vn -0.3819 0.1011 0.9186
vn -0.3070 0.6032 0.7361
vn -0.8125 -0.4760 -0.3366
vn -0.8125 -0.4760 0.3366
vn -0.9187 0.1011 0.3818
vn -0.9187 0.1011 -0.3818
vn -0.3365 -0.4760 0.8125
vn -0.8125 -0.4760 0.3365
vn -0.7362 0.6031 -0.3071
vn -0.9187 0.1011 -0.3819
vn -0.7362 0.6031 0.3071
vn -0.3819 0.1011 -0.9187
vn -0.3070 0.6032 -0.7362
vn -0.3365 -0.4760 -0.8125
vn -0.8125 -0.4760 -0.3365
vn -0.3071 0.6031 0.7362
vn -0.0000 1.0000 -0.0000
vn -0.7362 0.6031 0.3070
vn -0.3070 0.6031 -0.7362
vn 0.3071 0.6031 -0.7362
vn 0.7362 0.6031 -0.3070
vn 0.3070 0.6031 0.7362
vn 0.7362 0.6031 0.3071
vn -0.0000 -1.0000 -0.0000
vn 0.3366 -0.4760 0.8125
vn 0.3818 0.1011 0.9187
vn -0.3818 0.1011 0.9187
vn -0.3366 -0.4760 0.8125
vn 0.3071 0.6032 0.7361
vn -0.3071 0.6032 0.7361
vn 0.3818 0.1011 -0.9187
vn -0.3071 0.6032 -0.7361
vn 0.3071 0.6032 -0.7361
vn -0.3818 0.1011 -0.9187
vn 0.3366 -0.4760 -0.8125
vn -0.3366 -0.4760 -0.8125
vn 0.9187 0.1011 0.3818
vn 0.3070 0.6032 0.7362
vn 0.3819 0.1011 0.9186
vn 0.9187 0.1011 -0.3818
vn 0.7361 0.6032 -0.3071
vn 0.8125 -0.4760 -0.3366
vn 0.8125 -0.4760 0.3366
vn 0.9187 0.1011 -0.3819
vn 0.3070 0.6032 -0.7361
vn 0.7362 0.6032 -0.3070
vn 0.3819 0.1011 -0.9186
vn 0.8125 -0.4760 -0.3365
vn 0.3365 -0.4760 -0.8125
vn 0.8125 -0.4760 0.3365
vn 0.9187 0.1011 0.3819
vn 0.3819 0.1011 0.9187
vn 0.3365 -0.4760 0.8125
vt 1.687500 0.625000
vt 1.687500 0.437500
vt 1.828125 0.562500
vt -0.125000 0.375000
vt -0.125000 0.125000
vt 1.687500 0.125000
vt 1.687500 0.375000
vt -0.125000 0.437500
vt -0.125000 0.625000
vt 1.828125 0.875000
vt 1.687500 0.875000
vt 1.828125 0.625000
vt 1.687500 1.062500
vt 1.828125 0.937500
vt -0.125000 1.062500
vt -0.125000 0.875000
vt 0.898993 0.294194
vt 0.887944 0.250000
vt 0.898993 0.205806
vt 0.843750 0.073223
vt 0.854799 0.029029
vt 0.832701 0.029029
vt 0.843750 0.426777
vt 0.799556 0.250000
vt 0.788507 0.205806
vt 0.788507 0.294194
vt 0.854799 0.470971
vt 0.832701 0.470971
vt 0.765625 0.625000
vt 0.875000 0.437500
vt 0.812500 0.437500
vt 0.921875 0.625000
vt 0.765625 0.875000
vt 0.921875 0.875000
vt 0.812500 1.062500
vt 0.875000 1.062500
vt 1.828125 0.062500
vt 1.687500 -0.062500
vt 1.828125 0.125000
vt 1.828125 0.375000
s 1
usemtl textures/venice_wood_c1/wood_phong
f 7/1/1 11/2/2 10/3/3
f 1/4/4 3/5/5 2/6/6
f 1/4/4 2/6/6 4/7/7
f 5/8/8 7/1/1 6/9/9
f 7/1/1 8/10/10 9/11/11
f 7/1/1 10/3/3 12/12/12
f 5/8/8 11/2/2 7/1/1
f 7/1/1 12/12/12 8/10/10
f 8/10/10 13/13/13 9/11/11
f 8/10/10 14/14/14 13/13/13
f 9/11/11 13/13/13 15/15/15
f 9/11/11 15/15/15 16/16/16
f 17/17/17 19/18/18 18/19/19
f 18/19/19 19/18/18 20/20/18
f 18/19/19 20/20/18 21/21/10
f 20/20/18 22/22/20 21/21/10
f 17/17/17 23/23/18 19/18/18
f 19/18/18 23/23/18 24/24/18
f 19/18/18 24/24/18 20/20/18
f 20/20/18 24/24/18 25/25/21
f 20/20/18 25/25/21 22/22/20
f 23/23/18 26/26/22 24/24/18
f 24/24/18 26/26/22 25/25/21
f 17/17/17 27/27/23 23/23/18
f 23/23/18 27/27/23 28/28/24
f 23/23/18 28/28/24 26/26/22
f 29/29/25 31/30/25 30/31/25
f 29/29/25 32/32/25 31/30/25
f 29/29/25 33/33/25 32/32/25
f 32/32/25 33/33/25 35/34/25
f 33/33/25 34/35/25 35/34/25
f 34/35/25 36/36/25 35/34/25
f 37/16/26 39/11/27 38/1/28
f 37/16/26 38/1/28 40/9/29
f 38/1/28 39/11/27 41/10/30
f 38/1/28 41/10/30 42/12/31
f 43/11/32 45/12/33 44/10/34
f 43/11/32 46/1/35 45/12/33
f 43/11/32 47/16/36 46/1/35
f 46/1/35 47/16/36 48/9/37
f 49/6/38 51/37/39 50/38/40
f 49/6/38 52/39/24 51/37/39
f 49/6/38 53/7/41 52/39/24
f 52/39/24 53/7/41 54/40/42
f 49/6/38 64/4/43 53/7/41
f 49/6/38 65/5/44 64/4/43
f 55/11/45 57/14/46 56/10/47
f 55/11/45 58/13/48 57/14/46
f 55/11/45 59/16/49 58/13/48
f 58/13/48 59/16/49 60/15/50
f 61/9/51 63/1/52 62/2/53
f 61/9/51 62/2/53 66/8/54
